<svg width="1600" height="1200" xmlns="http://www.w3.org/2000/svg">
 <!-- Created with Method Draw - http://github.com/duopixel/Method-Draw/ -->
 <defs>
  <linearGradient y2="1" x2="0.113281" y1="0.144531" x1="0.132813" id="svg_3">
   <stop offset="0" stop-color="#485af9"/>
   <stop offset="1" stop-color="#b7a506"/>
  </linearGradient>
 </defs>
 <g>
  <title>background</title>
  <rect fill="url(#svg_3)" id="canvas_background" height="1202" width="1602" y="-1" x="-1"/>
 </g>
 <g>
  <title>Layer 1</title>
  <path transform="translate(264.99784697632174,314.9988388015456) scale(0.005) translate(-264.99784697632174,-314.9988388015456)" id="svg_5" d="m382.337409,151.450522c0.343654,-3.050161 0.542611,-6.131606 0.542611,-9.244335c0,-53.995677 -50.607504,-97.761582 -113.043924,-97.761582c-48.455148,0 -89.675484,26.41909 -105.754852,63.490282c-10.653259,-10.104637 -25.846363,-16.564722 -42.90243,-16.564722c-32.158736,0 -58.222143,22.53991 -58.222143,50.351125c0,3.284789 0.416002,6.491369 1.121396,9.588456c-42.90243,6.115965 -75.730386,38.103554 -75.730386,76.926634c0,43.202798 40.496855,78.209266 90.435139,78.209266l287.131568,0c49.956371,0 90.435139,-35.006467 90.435139,-78.209266c0.018087,-38.338182 -31.923604,-70.091144 -74.012118,-76.785857z" fill-opacity="null" stroke-opacity="null" stroke-width="1.5" stroke="#000" fill="#fff"/>
  <path transform="translate(34.99693449711566,-113.00285920323779) scale(0.005) translate(-34.99693449711566,113.00285920323779)" id="svg_8" d="m-3.170821,71.544716c0.001469,-0.195 0.002319,-0.392 0.002319,-0.591c0,-3.452 -0.216271,-6.25 -0.483094,-6.25c-0.207073,0 -0.383229,1.689 -0.451944,4.059c-0.045527,-0.646 -0.110455,-1.059 -0.183344,-1.059c-0.13743,0 -0.248813,1.441 -0.248813,3.219c0,0.21 0.001778,0.415 0.004792,0.613c-0.183344,0.391 -0.323634,2.436 -0.323634,4.918c0,2.762 0.173063,5 0.386475,5l1.227058,0c0.213489,0 0.386475,-2.238 0.386475,-5c0.000077,-2.451 -0.136426,-4.481 -0.316291,-4.909z" fill-opacity="null" stroke-opacity="null" stroke-width="1.5" stroke="#000" fill="#fff"/>
  <path transform="rotate(42.60368347167969 264.4172363281251,332.0725097656249) " id="svg_9" d="m271.943964,425.928668c-2.594785,0.247273 -5.247666,0.41822 -7.976117,0.41822l0,0c-2.44055,0 -4.811293,-0.135304 -7.123931,-0.335908l0,0l-20.024475,26.062015l-4.924612,-1.413711c-5.779919,-1.643551 -11.394104,-3.70551 -16.792883,-6.179713l0,0l-4.680278,-2.144327l1.204232,-32.73649c-4.2557,-3.016373 -8.226186,-6.374247 -11.903193,-10.055954l0,0l-31.659929,6.886713l-2.891405,-4.300831c-3.391738,-5.048459 -6.283125,-10.338777 -8.845722,-15.687539l0,0l-2.225329,-4.671821l21.496473,-24.094265c-1.343975,-5.101751 -2.23402,-10.368425 -2.693621,-15.734863l0,0l-28.486433,-15.251783l0.517743,-5.166676c0.610955,-6.179816 1.791847,-12.09426 3.202655,-17.77908l0,0l1.259612,-5.04296l31.773387,-4.453559c2.265931,-4.84245 4.933488,-9.431528 7.938248,-13.743891l0,0l-12.124067,-30.22685l3.659384,-3.628903c4.302065,-4.241582 8.906893,-8.088335 13.712201,-11.6054l0,0l4.162618,-3.039567l27.427597,17.443182c4.622284,-2.155999 9.456723,-3.929234 14.465744,-5.290187l0,0l9.942509,-31.240139l5.125406,-0.394586c2.760556,-0.206122 5.727615,-0.447756 8.953452,-0.447756l0,0c3.217174,0 6.175385,0.241634 8.936061,0.447756l0,0l5.125268,0.394586l10.050083,31.564384c4.817075,1.360598 9.485844,3.098564 13.959693,5.207697l0,0l27.811591,-17.69111l4.1771,3.039895c4.805437,3.511172 9.418743,7.369663 13.712395,11.593634l0,0l3.673765,3.628903l-12.496415,31.122455c2.722743,4.005794 5.17772,8.24747 7.275081,12.706977l0,0l32.765371,4.594924l1.27403,5.042633c1.431174,5.679171 2.606413,11.593606 3.202563,17.785216l0,0l0.5179,5.166349l-29.481354,15.781898c-0.442062,4.895731 -1.22747,9.714641 -2.399782,14.409637l0,0l22.212027,24.848656l-2.233927,4.68903c-2.553961,5.366869 -5.430911,10.674648 -8.837169,15.705562l0,0l-2.891377,4.288533l-32.4453,-7.039479c-3.438298,3.48144 -7.161559,6.686259 -11.141005,9.578785l0,0l1.236226,33.378611l-4.691943,2.150285c-5.404708,2.462446 -11.010064,4.530222 -16.789789,6.173839l0,0l-4.942281,1.413823l-20.068088,-26.126857l0,0l0.000009,0.000009zm25.749143,8.35957c1.73087,-0.583397 3.432507,-1.213883 5.116595,-1.885475l0,0l-1.157681,-31.522812l3.650674,-2.37427c5.468577,-3.593298 10.448504,-7.905754 14.87003,-12.80099l0,0l2.943737,-3.263506l30.700142,6.656611c0.922122,-1.561211 1.815048,-3.157616 2.676017,-4.789252l0,0l-20.998947,-23.511187l1.303161,-4.200468c1.852843,-6.050067 2.905906,-12.536246 3.2171,-19.30462l0,0l0.191992,-4.406806l27.892944,-14.927687c-0.290829,-1.808653 -0.625206,-3.605353 -1.006374,-5.408226l0,0l-31.034575,-4.347229l-1.669523,-4.065005c-2.495893,-6.07978 -5.797486,-11.77037 -9.738971,-17.019219l0,0l-2.606367,-3.499323l11.804135,-29.402063c-1.367195,-1.213837 -2.769275,-2.391834 -4.209122,-3.534675l0,0l-26.348331,16.748274l-3.880489,-2.073939c-5.747777,-3.063314 -11.964106,-5.390297 -18.520704,-6.898264l0,0l-4.241051,-0.983707l-9.514809,-29.879439c-0.925124,-0.046969 -1.823915,-0.070762 -2.699468,-0.070762l0,0c-0.893102,0 -1.791865,0.023793 -2.722771,0.070762l0,0l-9.447819,29.68512l-4.302259,0.93079c-6.670084,1.448952 -13.031651,3.81141 -18.956975,6.915949l0,0l-3.871789,2.038194l-25.920797,-16.482987c-1.431128,1.142841 -2.836182,2.320839 -4.191591,3.534675l0,0l11.489837,28.630417l-2.699274,3.504934c-4.209149,5.472768 -7.708563,11.470012 -10.332368,17.908885l0,0l-1.660896,4.082504l-30.036892,4.206089c-0.38102,1.802873 -0.718372,3.599573 -1.000537,5.408226l0,0l26.927292,14.415305l0.165734,4.441616c0.282091,7.169723 1.466068,14.050441 3.502194,20.48346l0,0l1.332402,4.229564l-20.335956,22.780823c0.855289,1.637575 1.745343,3.233961 2.676285,4.795079l0,0l29.862171,-6.50957l2.972933,3.263609c4.581414,5.07836 9.814431,9.490599 15.579849,13.155004l0,0l3.720482,2.350206l-1.137417,31.0399c1.687145,0.671592 3.39462,1.302079 5.125369,1.885475l0,0l18.901817,-24.612839l4.316677,0.535829c3.257934,0.418342 6.428558,0.689343 9.584736,0.689343l0,0c3.394592,0 6.818241,-0.300321 10.317673,-0.801116l0,0l4.354628,-0.618375l19.047139,24.807158l0,0l0.000009,0.000009zm8.616018,-63.917876l4.165388,6.479866l-26.406537,17.396531l-9.372239,-14.604209l0,0c-3.409296,0.842342 -6.99299,1.337572 -10.722079,1.337572l0,0c-25.804514,0 -46.713335,-21.178414 -46.713335,-47.281637l0,0c0,-26.126623 20.908821,-47.299192 46.713335,-47.299192l0,0c25.775392,0 46.689856,21.172569 46.689856,47.299192l0,0c0,10.727406 -3.560289,20.66562 -9.529208,28.601031l0,0l5.17482,8.070855m-17.764483,2.491664l0.823202,-0.529984l-7.528088,-11.728967l4.363227,-4.41844c5.704404,-5.79085 9.203697,-13.690693 9.203697,-22.48616l0,0c-0.032031,-17.584602 -14.093396,-31.823545 -31.438825,-31.858701l0,0c-17.38628,0.035166 -31.433089,14.25632 -31.462192,31.858701l0,0c0.029103,17.567094 14.09045,31.805691 31.462192,31.841184l0,0c3.880277,0 7.61537,-0.807167 11.23103,-2.209197l0,0l5.765326,-2.238611l7.580429,11.770174l0,0z" fill-opacity="null" stroke-opacity="null" stroke-width="1.5" stroke="#000" fill="#fff"/>
  <path transform="rotate(1.8279298543930054 486.4181518554706,376.07269287109517) " id="svg_10" d="m493.94485,469.928844c-2.594785,0.247273 -5.247666,0.41822 -7.976117,0.41822l0,0c-2.44055,0 -4.811293,-0.135304 -7.123931,-0.335908l0,0l-20.024475,26.062016l-4.924612,-1.413712c-5.779919,-1.643551 -11.394104,-3.70551 -16.792882,-6.179712l0,0l-4.680278,-2.144327l1.204232,-32.73649c-4.2557,-3.016373 -8.226187,-6.374247 -11.903194,-10.055955l0,0l-31.659929,6.886714l-2.891405,-4.300832c-3.391738,-5.048459 -6.283125,-10.338777 -8.845722,-15.687539l0,0l-2.225328,-4.671821l21.496473,-24.094265c-1.343976,-5.101751 -2.23402,-10.368425 -2.693622,-15.734863l0,0l-28.486433,-15.251783l0.517744,-5.166677c0.610954,-6.179815 1.791846,-12.09426 3.202655,-17.77908l0,0l1.259611,-5.04296l31.773387,-4.453559c2.265931,-4.84245 4.933488,-9.431528 7.938249,-13.743891l0,0l-12.124068,-30.22685l3.659385,-3.628903c4.302065,-4.241583 8.906892,-8.088336 13.7122,-11.6054l0,0l4.162618,-3.039567l27.427597,17.443181c4.622284,-2.155999 9.456723,-3.929234 14.465744,-5.290187l0,0l9.942509,-31.240139l5.125406,-0.394586c2.760556,-0.206122 5.727615,-0.447756 8.953452,-0.447756l0,0c3.217175,0 6.175385,0.241634 8.936061,0.447756l0,0l5.125268,0.394586l10.050082,31.564385c4.817075,1.360597 9.485845,3.098563 13.959694,5.207696l0,0l27.811591,-17.691109l4.1771,3.039895c4.805438,3.511172 9.418744,7.369662 13.712395,11.593634l0,0l3.673765,3.628903l-12.496415,31.122455c2.722743,4.005794 5.17772,8.24747 7.275082,12.706978l0,0l32.765371,4.594923l1.274029,5.042633c1.431174,5.679171 2.606414,11.593606 3.202563,17.785216l0,0l0.5179,5.166349l-29.481354,15.781897c-0.442062,4.895732 -1.22747,9.714641 -2.399782,14.409637l0,0l22.212028,24.848656l-2.233928,4.689029c-2.553961,5.366869 -5.430911,10.674648 -8.837169,15.705562l0,0l-2.891377,4.288533l-32.4453,-7.039479c-3.438298,3.48144 -7.16156,6.686259 -11.141005,9.578785l0,0l1.236226,33.378611l-4.691943,2.150285c-5.404709,2.462446 -11.010064,4.530222 -16.789789,6.173839l0,0l-4.942281,1.413824l-20.068088,-26.126857l0,0l0.00001,0.000009zm25.749143,8.35957c1.730869,-0.583396 3.432506,-1.213883 5.116595,-1.885475l0,0l-1.157682,-31.522812l3.650675,-2.37427c5.468576,-3.593298 10.448503,-7.905754 14.87003,-12.80099l0,0l2.943737,-3.263506l30.700142,6.656611c0.922122,-1.561211 1.815048,-3.157616 2.676017,-4.789252l0,0l-20.998947,-23.511187l1.303161,-4.200468c1.852842,-6.050067 2.905905,-12.536246 3.2171,-19.30462l0,0l0.191993,-4.406806l27.892943,-14.927687c-0.290829,-1.808653 -0.625206,-3.605353 -1.006374,-5.408226l0,0l-31.034575,-4.347229l-1.669523,-4.065006c-2.495893,-6.07978 -5.797486,-11.77037 -9.738971,-17.019218l0,0l-2.606367,-3.499323l11.804135,-29.402063c-1.367195,-1.213837 -2.769275,-2.391834 -4.209122,-3.534675l0,0l-26.348331,16.748273l-3.880489,-2.073939c-5.747777,-3.063314 -11.964106,-5.390297 -18.520705,-6.898264l0,0l-4.241051,-0.983706l-9.514809,-29.879439c-0.925124,-0.046969 -1.823915,-0.070762 -2.699468,-0.070762l0,0c-0.893102,0 -1.791865,0.023793 -2.722771,0.070762l0,0l-9.447819,29.68512l-4.302259,0.930789c-6.670084,1.448952 -13.031651,3.81141 -18.956975,6.91595l0,0l-3.871789,2.038194l-25.920797,-16.482988c-1.431128,1.142841 -2.836182,2.320839 -4.191592,3.534676l0,0l11.489837,28.630417l-2.699274,3.504934c-4.209149,5.472768 -7.708563,11.470012 -10.332368,17.908885l0,0l-1.660896,4.082504l-30.036892,4.206089c-0.381021,1.802873 -0.718372,3.599573 -1.000537,5.408226l0,0l26.927291,14.415305l0.165734,4.441616c0.282092,7.169723 1.466069,14.050441 3.502194,20.48346l0,0l1.332402,4.229564l-20.335955,22.780824c0.855288,1.637575 1.745342,3.233961 2.676285,4.795078l0,0l29.862171,-6.509569l2.972933,3.263609c4.581414,5.078359 9.814431,9.490599 15.579849,13.155004l0,0l3.720481,2.350206l-1.137417,31.0399c1.687146,0.671591 3.39462,1.302078 5.125369,1.885475l0,0l18.901817,-24.612839l4.316677,0.535829c3.257934,0.418342 6.428558,0.689343 9.584737,0.689343l0,0c3.394592,0 6.818241,-0.300321 10.317673,-0.801116l0,0l4.354628,-0.618375l19.047139,24.807158l0,0l0.00001,0.000009zm8.616017,-63.917876l4.165389,6.479866l-26.406538,17.396531l-9.372239,-14.604209l0,0c-3.409296,0.842342 -6.99299,1.337572 -10.722079,1.337572l0,0c-25.804514,0 -46.713335,-21.178414 -46.713335,-47.281637l0,0c0,-26.126623 20.908821,-47.299192 46.713335,-47.299192l0,0c25.775392,0 46.689856,21.172569 46.689856,47.299192l0,0c0,10.727406 -3.560289,20.66562 -9.529208,28.601031l0,0l5.174819,8.070856m-17.764483,2.491664l0.823203,-0.529984l-7.528088,-11.728967l4.363227,-4.41844c5.704404,-5.79085 9.203698,-13.690693 9.203698,-22.48616l0,0c-0.032031,-17.584602 -14.093397,-31.823545 -31.438825,-31.858702l0,0c-17.386279,0.035166 -31.433089,14.25632 -31.462192,31.858702l0,0c0.029103,17.567094 14.09045,31.805691 31.462192,31.841184l0,0c3.880277,0 7.61537,-0.807167 11.23103,-2.209197l0,0l5.765326,-2.23861l7.580429,11.770174l0,0z" fill-opacity="null" stroke-opacity="null" stroke-width="1.5" stroke="#000" fill="#fff"/>
  <path transform="rotate(39.93256759643555 632.4207153320312,206.06970214843756) " id="svg_11" d="m639.947424,299.925858c-2.594785,0.247273 -5.247666,0.41822 -7.976117,0.41822l0,0c-2.44055,0 -4.811293,-0.135304 -7.123931,-0.335908l0,0l-20.024475,26.062016l-4.924612,-1.413712c-5.779919,-1.643551 -11.394104,-3.70551 -16.792882,-6.179712l0,0l-4.680278,-2.144327l1.204232,-32.73649c-4.2557,-3.016373 -8.226187,-6.374247 -11.903194,-10.055955l0,0l-31.659929,6.886714l-2.891405,-4.300832c-3.391738,-5.048459 -6.283125,-10.338777 -8.845722,-15.687539l0,0l-2.225328,-4.671821l21.496473,-24.094265c-1.343976,-5.101751 -2.23402,-10.368425 -2.693622,-15.734863l0,0l-28.486433,-15.251783l0.517744,-5.166677c0.610954,-6.179815 1.791846,-12.09426 3.202655,-17.77908l0,0l1.259611,-5.04296l31.773387,-4.453559c2.265931,-4.84245 4.933488,-9.431528 7.938249,-13.743891l0,0l-12.124068,-30.22685l3.659385,-3.628903c4.302065,-4.241583 8.906892,-8.088336 13.7122,-11.6054l0,0l4.162618,-3.039567l27.427597,17.443181c4.622284,-2.155999 9.456723,-3.929234 14.465744,-5.290187l0,0l9.942509,-31.240139l5.125406,-0.394586c2.760556,-0.206122 5.727615,-0.447756 8.953452,-0.447756l0,0c3.217175,0 6.175385,0.241634 8.936061,0.447756l0,0l5.125268,0.394586l10.050082,31.564385c4.817075,1.360597 9.485845,3.098563 13.959694,5.207696l0,0l27.811591,-17.691109l4.1771,3.039895c4.805438,3.511172 9.418744,7.369662 13.712395,11.593634l0,0l3.673765,3.628903l-12.496415,31.122455c2.722743,4.005794 5.17772,8.24747 7.275082,12.706978l0,0l32.765371,4.594923l1.274029,5.042633c1.431174,5.679171 2.606414,11.593606 3.202563,17.785216l0,0l0.5179,5.166349l-29.481354,15.781897c-0.442062,4.895732 -1.22747,9.714641 -2.399782,14.409637l0,0l22.212028,24.848656l-2.233928,4.689029c-2.553961,5.366869 -5.430911,10.674648 -8.837169,15.705562l0,0l-2.891377,4.288533l-32.4453,-7.039479c-3.438298,3.48144 -7.16156,6.686259 -11.141005,9.578785l0,0l1.236226,33.378611l-4.691943,2.150285c-5.404709,2.462446 -11.010064,4.530222 -16.789789,6.173839l0,0l-4.942281,1.413824l-20.068088,-26.126857l0,0l0.00001,0.000009zm25.749143,8.35957c1.730869,-0.583396 3.432506,-1.213883 5.116595,-1.885475l0,0l-1.157682,-31.522812l3.650675,-2.37427c5.468576,-3.593298 10.448503,-7.905754 14.87003,-12.80099l0,0l2.943737,-3.263506l30.700142,6.656611c0.922122,-1.561211 1.815048,-3.157616 2.676017,-4.789252l0,0l-20.998947,-23.511187l1.303161,-4.200468c1.852842,-6.050067 2.905905,-12.536246 3.2171,-19.30462l0,0l0.191993,-4.406806l27.892943,-14.927687c-0.290829,-1.808653 -0.625206,-3.605353 -1.006374,-5.408226l0,0l-31.034575,-4.347229l-1.669523,-4.065006c-2.495893,-6.07978 -5.797486,-11.77037 -9.738971,-17.019218l0,0l-2.606367,-3.499323l11.804135,-29.402063c-1.367195,-1.213837 -2.769275,-2.391834 -4.209122,-3.534675l0,0l-26.348331,16.748273l-3.880489,-2.073939c-5.747777,-3.063314 -11.964106,-5.390297 -18.520705,-6.898264l0,0l-4.241051,-0.983706l-9.514809,-29.879439c-0.925124,-0.046969 -1.823915,-0.070762 -2.699468,-0.070762l0,0c-0.893102,0 -1.791865,0.023793 -2.722771,0.070762l0,0l-9.447819,29.68512l-4.302259,0.930789c-6.670084,1.448952 -13.031651,3.81141 -18.956975,6.91595l0,0l-3.871789,2.038194l-25.920797,-16.482988c-1.431128,1.142841 -2.836182,2.320839 -4.191592,3.534676l0,0l11.489837,28.630417l-2.699274,3.504934c-4.209149,5.472768 -7.708563,11.470012 -10.332368,17.908885l0,0l-1.660896,4.082504l-30.036892,4.206089c-0.381021,1.802873 -0.718372,3.599573 -1.000537,5.408226l0,0l26.927291,14.415305l0.165734,4.441616c0.282092,7.169723 1.466069,14.050441 3.502194,20.48346l0,0l1.332402,4.229564l-20.335955,22.780824c0.855288,1.637575 1.745342,3.233961 2.676285,4.795078l0,0l29.862171,-6.509569l2.972933,3.263609c4.581414,5.078359 9.814431,9.490599 15.579849,13.155004l0,0l3.720481,2.350206l-1.137417,31.0399c1.687146,0.671591 3.39462,1.302078 5.125369,1.885475l0,0l18.901817,-24.612839l4.316677,0.535829c3.257934,0.418342 6.428558,0.689343 9.584737,0.689343l0,0c3.394592,0 6.818241,-0.300321 10.317673,-0.801116l0,0l4.354628,-0.618375l19.047139,24.807158l0,0l0.00001,0.000009zm8.616017,-63.917876l4.165389,6.479866l-26.406538,17.396531l-9.372239,-14.604209l0,0c-3.409296,0.842342 -6.99299,1.337572 -10.722079,1.337572l0,0c-25.804514,0 -46.713335,-21.178414 -46.713335,-47.281637l0,0c0,-26.126623 20.908821,-47.299192 46.713335,-47.299192l0,0c25.775392,0 46.689856,21.172569 46.689856,47.299192l0,0c0,10.727406 -3.560289,20.66562 -9.529208,28.601031l0,0l5.174819,8.070856m-17.764483,2.491664l0.823203,-0.529984l-7.528088,-11.728967l4.363227,-4.41844c5.704404,-5.79085 9.203698,-13.690693 9.203698,-22.48616l0,0c-0.032031,-17.584602 -14.093397,-31.823545 -31.438825,-31.858702l0,0c-17.386279,0.035166 -31.433089,14.25632 -31.462192,31.858702l0,0c0.029103,17.567094 14.09045,31.805691 31.462192,31.841184l0,0c3.880277,0 7.61537,-0.807167 11.23103,-2.209197l0,0l5.765326,-2.23861l7.580429,11.770174l0,0z" fill-opacity="null" stroke-opacity="null" stroke-width="1.5" stroke="#000" fill="#fff"/>
  <path stroke="#000" transform="rotate(-117.1849365234375 546.4183349609375,590.0735473632812) " id="svg_12" d="m553.945094,683.929692c-2.594785,0.247273 -5.247666,0.41822 -7.976117,0.41822l0,0c-2.44055,0 -4.811293,-0.135304 -7.123931,-0.335908l0,0l-20.024475,26.062016l-4.924612,-1.413712c-5.779919,-1.643551 -11.394104,-3.70551 -16.792882,-6.179712l0,0l-4.680278,-2.144327l1.204232,-32.73649c-4.2557,-3.016373 -8.226187,-6.374247 -11.903194,-10.055955l0,0l-31.659929,6.886714l-2.891405,-4.300832c-3.391738,-5.048459 -6.283125,-10.338777 -8.845722,-15.687539l0,0l-2.225328,-4.671821l21.496473,-24.094265c-1.343976,-5.101751 -2.23402,-10.368425 -2.693622,-15.734863l0,0l-28.486433,-15.251783l0.517744,-5.166677c0.610954,-6.179815 1.791846,-12.09426 3.202655,-17.77908l0,0l1.259611,-5.04296l31.773387,-4.453559c2.265931,-4.84245 4.933488,-9.431528 7.938249,-13.743891l0,0l-12.124068,-30.22685l3.659385,-3.628903c4.302065,-4.241583 8.906892,-8.088336 13.7122,-11.6054l0,0l4.162618,-3.039567l27.427597,17.443181c4.622284,-2.155999 9.456723,-3.929234 14.465744,-5.290187l0,0l9.942509,-31.240139l5.125406,-0.394586c2.760556,-0.206122 5.727615,-0.447756 8.953452,-0.447756l0,0c3.217175,0 6.175385,0.241634 8.936061,0.447756l0,0l5.125268,0.394586l10.050082,31.564385c4.817075,1.360597 9.485845,3.098563 13.959694,5.207696l0,0l27.811591,-17.691109l4.1771,3.039895c4.805438,3.511172 9.418744,7.369662 13.712395,11.593634l0,0l3.673765,3.628903l-12.496415,31.122455c2.722743,4.005794 5.17772,8.24747 7.275082,12.706978l0,0l32.765371,4.594923l1.274029,5.042633c1.431174,5.679171 2.606414,11.593606 3.202563,17.785216l0,0l0.5179,5.166349l-29.481354,15.781897c-0.442062,4.895732 -1.22747,9.714641 -2.399782,14.409637l0,0l22.212028,24.848656l-2.233928,4.689029c-2.553961,5.366869 -5.430911,10.674648 -8.837169,15.705562l0,0l-2.891377,4.288533l-32.4453,-7.039479c-3.438298,3.48144 -7.16156,6.686259 -11.141005,9.578785l0,0l1.236226,33.378611l-4.691943,2.150285c-5.404709,2.462446 -11.010064,4.530222 -16.789789,6.173839l0,0l-4.942281,1.413824l-20.068088,-26.126857l0,0l0.00001,0.000009zm25.749143,8.35957c1.730869,-0.583396 3.432506,-1.213883 5.116595,-1.885475l0,0l-1.157682,-31.522812l3.650675,-2.37427c5.468576,-3.593298 10.448503,-7.905754 14.87003,-12.80099l0,0l2.943737,-3.263506l30.700142,6.656611c0.922122,-1.561211 1.815048,-3.157616 2.676017,-4.789252l0,0l-20.998947,-23.511187l1.303161,-4.200468c1.852842,-6.050067 2.905905,-12.536246 3.2171,-19.30462l0,0l0.191993,-4.406806l27.892943,-14.927687c-0.290829,-1.808653 -0.625206,-3.605353 -1.006374,-5.408226l0,0l-31.034575,-4.347229l-1.669523,-4.065006c-2.495893,-6.07978 -5.797486,-11.77037 -9.738971,-17.019218l0,0l-2.606367,-3.499323l11.804135,-29.402063c-1.367195,-1.213837 -2.769275,-2.391834 -4.209122,-3.534675l0,0l-26.348331,16.748273l-3.880489,-2.073939c-5.747777,-3.063314 -11.964106,-5.390297 -18.520705,-6.898264l0,0l-4.241051,-0.983706l-9.514809,-29.879439c-0.925124,-0.046969 -1.823915,-0.070762 -2.699468,-0.070762l0,0c-0.893102,0 -1.791865,0.023793 -2.722771,0.070762l0,0l-9.447819,29.68512l-4.302259,0.930789c-6.670084,1.448952 -13.031651,3.81141 -18.956975,6.91595l0,0l-3.871789,2.038194l-25.920797,-16.482988c-1.431128,1.142841 -2.836182,2.320839 -4.191592,3.534676l0,0l11.489837,28.630417l-2.699274,3.504934c-4.209149,5.472768 -7.708563,11.470012 -10.332368,17.908885l0,0l-1.660896,4.082504l-30.036892,4.206089c-0.381021,1.802873 -0.718372,3.599573 -1.000537,5.408226l0,0l26.927291,14.415305l0.165734,4.441616c0.282092,7.169723 1.466069,14.050441 3.502194,20.48346l0,0l1.332402,4.229564l-20.335955,22.780824c0.855288,1.637575 1.745342,3.233961 2.676285,4.795078l0,0l29.862171,-6.509569l2.972933,3.263609c4.581414,5.078359 9.814431,9.490599 15.579849,13.155004l0,0l3.720481,2.350206l-1.137417,31.0399c1.687146,0.671591 3.39462,1.302078 5.125369,1.885475l0,0l18.901817,-24.612839l4.316677,0.535829c3.257934,0.418342 6.428558,0.689343 9.584737,0.689343l0,0c3.394592,0 6.818241,-0.300321 10.317673,-0.801116l0,0l4.354628,-0.618375l19.047139,24.807158l0,0l0.00001,0.000009zm8.616017,-63.917876l4.165389,6.479866l-26.406538,17.396531l-9.372239,-14.604209l0,0c-3.409296,0.842342 -6.99299,1.337572 -10.722079,1.337572l0,0c-25.804514,0 -46.713335,-21.178414 -46.713335,-47.281637l0,0c0,-26.126623 20.908821,-47.299192 46.713335,-47.299192l0,0c25.775392,0 46.689856,21.172569 46.689856,47.299192l0,0c0,10.727406 -3.560289,20.66562 -9.529208,28.601031l0,0l5.174819,8.070856m-17.764483,2.491664l0.823203,-0.529984l-7.528088,-11.728967l4.363227,-4.41844c5.704404,-5.79085 9.203698,-13.690693 9.203698,-22.48616l0,0c-0.032031,-17.584602 -14.093397,-31.823545 -31.438825,-31.858702l0,0c-17.386279,0.035166 -31.433089,14.25632 -31.462192,31.858702l0,0c0.029103,17.567094 14.09045,31.805691 31.462192,31.841184l0,0c3.880277,0 7.61537,-0.807167 11.23103,-2.209197l0,0l5.765326,-2.23861l7.580429,11.770174l0,0z" fill-opacity="null" stroke-opacity="null" stroke-width="1.5" fill="#fff"/>
  <path transform="rotate(-118.3636703491211 936.419921875,370.07263183593744) " id="svg_13" d="m943.946658,463.928807c-2.594785,0.247273 -5.247666,0.41822 -7.976117,0.41822l0,0c-2.44055,0 -4.811293,-0.135304 -7.123931,-0.335908l0,0l-20.024475,26.062016l-4.924612,-1.413712c-5.779919,-1.643551 -11.394104,-3.70551 -16.792882,-6.179712l0,0l-4.680278,-2.144327l1.204232,-32.73649c-4.2557,-3.016373 -8.226187,-6.374247 -11.903194,-10.055955l0,0l-31.659929,6.886714l-2.891405,-4.300832c-3.391738,-5.048459 -6.283125,-10.338777 -8.845722,-15.687539l0,0l-2.225328,-4.671821l21.496473,-24.094265c-1.343976,-5.101751 -2.23402,-10.368425 -2.693622,-15.734863l0,0l-28.486433,-15.251783l0.517744,-5.166677c0.610954,-6.179815 1.791846,-12.09426 3.202655,-17.77908l0,0l1.259611,-5.04296l31.773387,-4.453559c2.265931,-4.84245 4.933488,-9.431528 7.938249,-13.743891l0,0l-12.124068,-30.22685l3.659385,-3.628903c4.302065,-4.241583 8.906892,-8.088336 13.7122,-11.6054l0,0l4.162618,-3.039567l27.427597,17.443181c4.622284,-2.155999 9.456723,-3.929234 14.465744,-5.290187l0,0l9.942509,-31.240139l5.125406,-0.394586c2.760556,-0.206122 5.727615,-0.447756 8.953452,-0.447756l0,0c3.217175,0 6.175385,0.241634 8.936061,0.447756l0,0l5.125268,0.394586l10.050082,31.564385c4.817075,1.360597 9.485845,3.098563 13.959694,5.207696l0,0l27.811591,-17.691109l4.1771,3.039895c4.805438,3.511172 9.418744,7.369662 13.712395,11.593634l0,0l3.673765,3.628903l-12.496415,31.122455c2.722743,4.005794 5.17772,8.24747 7.275082,12.706978l0,0l32.765371,4.594923l1.274029,5.042633c1.431174,5.679171 2.606414,11.593606 3.202563,17.785216l0,0l0.5179,5.166349l-29.481354,15.781897c-0.442062,4.895732 -1.22747,9.714641 -2.399782,14.409637l0,0l22.212028,24.848656l-2.233928,4.689029c-2.553961,5.366869 -5.430911,10.674648 -8.837169,15.705562l0,0l-2.891377,4.288533l-32.4453,-7.039479c-3.438298,3.48144 -7.16156,6.686259 -11.141005,9.578785l0,0l1.236226,33.378611l-4.691943,2.150285c-5.404709,2.462446 -11.010064,4.530222 -16.789789,6.173839l0,0l-4.942281,1.413824l-20.068088,-26.126857l0,0l0.00001,0.000009zm25.749143,8.35957c1.730869,-0.583396 3.432506,-1.213883 5.116595,-1.885475l0,0l-1.157682,-31.522812l3.650675,-2.37427c5.468576,-3.593298 10.448503,-7.905754 14.87003,-12.80099l0,0l2.943737,-3.263506l30.700142,6.656611c0.922122,-1.561211 1.815048,-3.157616 2.676017,-4.789252l0,0l-20.998947,-23.511187l1.303161,-4.200468c1.852842,-6.050067 2.905905,-12.536246 3.2171,-19.30462l0,0l0.191993,-4.406806l27.892943,-14.927687c-0.290829,-1.808653 -0.625206,-3.605353 -1.006374,-5.408226l0,0l-31.034575,-4.347229l-1.669523,-4.065006c-2.495893,-6.07978 -5.797486,-11.77037 -9.738971,-17.019218l0,0l-2.606367,-3.499323l11.804135,-29.402063c-1.367195,-1.213837 -2.769275,-2.391834 -4.209122,-3.534675l0,0l-26.348331,16.748273l-3.880489,-2.073939c-5.747777,-3.063314 -11.964106,-5.390297 -18.520705,-6.898264l0,0l-4.241051,-0.983706l-9.514809,-29.879439c-0.925124,-0.046969 -1.823915,-0.070762 -2.699468,-0.070762l0,0c-0.893102,0 -1.791865,0.023793 -2.722771,0.070762l0,0l-9.447819,29.68512l-4.302259,0.930789c-6.670084,1.448952 -13.031651,3.81141 -18.956975,6.91595l0,0l-3.871789,2.038194l-25.920797,-16.482988c-1.431128,1.142841 -2.836182,2.320839 -4.191592,3.534676l0,0l11.489837,28.630417l-2.699274,3.504934c-4.209149,5.472768 -7.708563,11.470012 -10.332368,17.908885l0,0l-1.660896,4.082504l-30.036892,4.206089c-0.381021,1.802873 -0.718372,3.599573 -1.000537,5.408226l0,0l26.927291,14.415305l0.165734,4.441616c0.282092,7.169723 1.466069,14.050441 3.502194,20.48346l0,0l1.332402,4.229564l-20.335955,22.780824c0.855288,1.637575 1.745342,3.233961 2.676285,4.795078l0,0l29.862171,-6.509569l2.972933,3.263609c4.581414,5.078359 9.814431,9.490599 15.579849,13.155004l0,0l3.720481,2.350206l-1.137417,31.0399c1.687146,0.671591 3.39462,1.302078 5.125369,1.885475l0,0l18.901817,-24.612839l4.316677,0.535829c3.257934,0.418342 6.428558,0.689343 9.584737,0.689343l0,0c3.394592,0 6.818241,-0.300321 10.317673,-0.801116l0,0l4.354628,-0.618375l19.047139,24.807158l0,0l0.00001,0.000009zm8.616017,-63.917876l4.165389,6.479866l-26.406538,17.396531l-9.372239,-14.604209l0,0c-3.409296,0.842342 -6.99299,1.337572 -10.722079,1.337572l0,0c-25.804514,0 -46.713335,-21.178414 -46.713335,-47.281637l0,0c0,-26.126623 20.908821,-47.299192 46.713335,-47.299192l0,0c25.775392,0 46.689856,21.172569 46.689856,47.299192l0,0c0,10.727406 -3.560289,20.66562 -9.529208,28.601031l0,0l5.174819,8.070856m-17.764483,2.491664l0.823203,-0.529984l-7.528088,-11.728967l4.363227,-4.41844c5.704404,-5.79085 9.203698,-13.690693 9.203698,-22.48616l0,0c-0.032031,-17.584602 -14.093397,-31.823545 -31.438825,-31.858702l0,0c-17.386279,0.035166 -31.433089,14.25632 -31.462192,31.858702l0,0c0.029103,17.567094 14.09045,31.805691 31.462192,31.841184l0,0c3.880277,0 7.61537,-0.807167 11.23103,-2.209197l0,0l5.765326,-2.23861l7.580429,11.770174l0,0z" fill-opacity="null" stroke-opacity="null" stroke-width="1.5" stroke="#000" fill="#fff"/>
  <path transform="rotate(-79.43064880371094 928.4195556640625,598.0725708007812) " id="svg_14" d="m935.946257,691.928706c-2.594785,0.247273 -5.247666,0.41822 -7.976117,0.41822l0,0c-2.44055,0 -4.811293,-0.135304 -7.123931,-0.335908l0,0l-20.024475,26.062016l-4.924612,-1.413712c-5.779919,-1.643551 -11.394104,-3.70551 -16.792882,-6.179712l0,0l-4.680278,-2.144327l1.204232,-32.73649c-4.2557,-3.016373 -8.226187,-6.374247 -11.903194,-10.055955l0,0l-31.659929,6.886714l-2.891405,-4.300832c-3.391738,-5.048459 -6.283125,-10.338777 -8.845722,-15.687539l0,0l-2.225328,-4.671821l21.496473,-24.094265c-1.343976,-5.101751 -2.23402,-10.368425 -2.693622,-15.734863l0,0l-28.486433,-15.251783l0.517744,-5.166677c0.610954,-6.179815 1.791846,-12.09426 3.202655,-17.77908l0,0l1.259611,-5.04296l31.773387,-4.453559c2.265931,-4.84245 4.933488,-9.431528 7.938249,-13.743891l0,0l-12.124068,-30.22685l3.659385,-3.628903c4.302065,-4.241583 8.906892,-8.088336 13.7122,-11.6054l0,0l4.162618,-3.039567l27.427597,17.443181c4.622284,-2.155999 9.456723,-3.929234 14.465744,-5.290187l0,0l9.942509,-31.240139l5.125406,-0.394586c2.760556,-0.206122 5.727615,-0.447756 8.953452,-0.447756l0,0c3.217175,0 6.175385,0.241634 8.936061,0.447756l0,0l5.125268,0.394586l10.050082,31.564385c4.817075,1.360597 9.485845,3.098563 13.959694,5.207696l0,0l27.811591,-17.691109l4.1771,3.039895c4.805438,3.511172 9.418744,7.369662 13.712395,11.593634l0,0l3.673765,3.628903l-12.496415,31.122455c2.722743,4.005794 5.17772,8.24747 7.275082,12.706978l0,0l32.765371,4.594923l1.274029,5.042633c1.431174,5.679171 2.606414,11.593606 3.202563,17.785216l0,0l0.5179,5.166349l-29.481354,15.781897c-0.442062,4.895732 -1.22747,9.714641 -2.399782,14.409637l0,0l22.212028,24.848656l-2.233928,4.689029c-2.553961,5.366869 -5.430911,10.674648 -8.837169,15.705562l0,0l-2.891377,4.288533l-32.4453,-7.039479c-3.438298,3.48144 -7.16156,6.686259 -11.141005,9.578785l0,0l1.236226,33.378611l-4.691943,2.150285c-5.404709,2.462446 -11.010064,4.530222 -16.789789,6.173839l0,0l-4.942281,1.413824l-20.068088,-26.126857l0,0l0.00001,0.000009zm25.749143,8.35957c1.730869,-0.583396 3.432506,-1.213883 5.116595,-1.885475l0,0l-1.157682,-31.522812l3.650675,-2.37427c5.468576,-3.593298 10.448503,-7.905754 14.87003,-12.80099l0,0l2.943737,-3.263506l30.700142,6.656611c0.922122,-1.561211 1.815048,-3.157616 2.676017,-4.789252l0,0l-20.998947,-23.511187l1.303161,-4.200468c1.852842,-6.050067 2.905905,-12.536246 3.2171,-19.30462l0,0l0.191993,-4.406806l27.892943,-14.927687c-0.290829,-1.808653 -0.625206,-3.605353 -1.006374,-5.408226l0,0l-31.034575,-4.347229l-1.669523,-4.065006c-2.495893,-6.07978 -5.797486,-11.77037 -9.738971,-17.019218l0,0l-2.606367,-3.499323l11.804135,-29.402063c-1.367195,-1.213837 -2.769275,-2.391834 -4.209122,-3.534675l0,0l-26.348331,16.748273l-3.880489,-2.073939c-5.747777,-3.063314 -11.964106,-5.390297 -18.520705,-6.898264l0,0l-4.241051,-0.983706l-9.514809,-29.879439c-0.925124,-0.046969 -1.823915,-0.070762 -2.699468,-0.070762l0,0c-0.893102,0 -1.791865,0.023793 -2.722771,0.070762l0,0l-9.447819,29.68512l-4.302259,0.930789c-6.670084,1.448952 -13.031651,3.81141 -18.956975,6.91595l0,0l-3.871789,2.038194l-25.920797,-16.482988c-1.431128,1.142841 -2.836182,2.320839 -4.191592,3.534676l0,0l11.489837,28.630417l-2.699274,3.504934c-4.209149,5.472768 -7.708563,11.470012 -10.332368,17.908885l0,0l-1.660896,4.082504l-30.036892,4.206089c-0.381021,1.802873 -0.718372,3.599573 -1.000537,5.408226l0,0l26.927291,14.415305l0.165734,4.441616c0.282092,7.169723 1.466069,14.050441 3.502194,20.48346l0,0l1.332402,4.229564l-20.335955,22.780824c0.855288,1.637575 1.745342,3.233961 2.676285,4.795078l0,0l29.862171,-6.509569l2.972933,3.263609c4.581414,5.078359 9.814431,9.490599 15.579849,13.155004l0,0l3.720481,2.350206l-1.137417,31.0399c1.687146,0.671591 3.39462,1.302078 5.125369,1.885475l0,0l18.901817,-24.612839l4.316677,0.535829c3.257934,0.418342 6.428558,0.689343 9.584737,0.689343l0,0c3.394592,0 6.818241,-0.300321 10.317673,-0.801116l0,0l4.354628,-0.618375l19.047139,24.807158l0,0l0.00001,0.000009zm8.616017,-63.917876l4.165389,6.479866l-26.406538,17.396531l-9.372239,-14.604209l0,0c-3.409296,0.842342 -6.99299,1.337572 -10.722079,1.337572l0,0c-25.804514,0 -46.713335,-21.178414 -46.713335,-47.281637l0,0c0,-26.126623 20.908821,-47.299192 46.713335,-47.299192l0,0c25.775392,0 46.689856,21.172569 46.689856,47.299192l0,0c0,10.727406 -3.560289,20.66562 -9.529208,28.601031l0,0l5.174819,8.070856m-17.764483,2.491664l0.823203,-0.529984l-7.528088,-11.728967l4.363227,-4.41844c5.704404,-5.79085 9.203698,-13.690693 9.203698,-22.48616l0,0c-0.032031,-17.584602 -14.093397,-31.823545 -31.438825,-31.858702l0,0c-17.386279,0.035166 -31.433089,14.25632 -31.462192,31.858702l0,0c0.029103,17.567094 14.09045,31.805691 31.462192,31.841184l0,0c3.880277,0 7.61537,-0.807167 11.23103,-2.209197l0,0l5.765326,-2.23861l7.580429,11.770174l0,0z" fill-opacity="null" stroke-opacity="null" stroke-width="1.5" stroke="#000" fill="#fff"/>
  <path transform="rotate(83.22413635253906 736.4191284179686,706.073974609375) " id="svg_15" d="m743.945849,799.930134c-2.594785,0.247273 -5.247666,0.41822 -7.976117,0.41822l0,0c-2.44055,0 -4.811293,-0.135304 -7.123931,-0.335908l0,0l-20.024475,26.062016l-4.924612,-1.413712c-5.779919,-1.643551 -11.394104,-3.70551 -16.792882,-6.179712l0,0l-4.680278,-2.144327l1.204232,-32.73649c-4.2557,-3.016373 -8.226187,-6.374247 -11.903194,-10.055955l0,0l-31.659929,6.886714l-2.891405,-4.300832c-3.391738,-5.048459 -6.283125,-10.338777 -8.845722,-15.687539l0,0l-2.225328,-4.671821l21.496473,-24.094265c-1.343976,-5.101751 -2.23402,-10.368425 -2.693622,-15.734863l0,0l-28.486433,-15.251783l0.517744,-5.166677c0.610954,-6.179815 1.791846,-12.09426 3.202655,-17.77908l0,0l1.259611,-5.04296l31.773387,-4.453559c2.265931,-4.84245 4.933488,-9.431528 7.938249,-13.743891l0,0l-12.124068,-30.22685l3.659385,-3.628903c4.302065,-4.241583 8.906892,-8.088336 13.7122,-11.6054l0,0l4.162618,-3.039567l27.427597,17.443181c4.622284,-2.155999 9.456723,-3.929234 14.465744,-5.290187l0,0l9.942509,-31.240139l5.125406,-0.394586c2.760556,-0.206122 5.727615,-0.447756 8.953452,-0.447756l0,0c3.217175,0 6.175385,0.241634 8.936061,0.447756l0,0l5.125268,0.394586l10.050082,31.564385c4.817075,1.360597 9.485845,3.098563 13.959694,5.207696l0,0l27.811591,-17.691109l4.1771,3.039895c4.805438,3.511172 9.418744,7.369662 13.712395,11.593634l0,0l3.673765,3.628903l-12.496415,31.122455c2.722743,4.005794 5.17772,8.24747 7.275082,12.706978l0,0l32.765371,4.594923l1.274029,5.042633c1.431174,5.679171 2.606414,11.593606 3.202563,17.785216l0,0l0.5179,5.166349l-29.481354,15.781897c-0.442062,4.895732 -1.22747,9.714641 -2.399782,14.409637l0,0l22.212028,24.848656l-2.233928,4.689029c-2.553961,5.366869 -5.430911,10.674648 -8.837169,15.705562l0,0l-2.891377,4.288533l-32.4453,-7.039479c-3.438298,3.48144 -7.16156,6.686259 -11.141005,9.578785l0,0l1.236226,33.378611l-4.691943,2.150285c-5.404709,2.462446 -11.010064,4.530222 -16.789789,6.173839l0,0l-4.942281,1.413824l-20.068088,-26.126857l0,0l0.00001,0.000009zm25.749143,8.35957c1.730869,-0.583396 3.432506,-1.213883 5.116595,-1.885475l0,0l-1.157682,-31.522812l3.650675,-2.37427c5.468576,-3.593298 10.448503,-7.905754 14.87003,-12.80099l0,0l2.943737,-3.263506l30.700142,6.656611c0.922122,-1.561211 1.815048,-3.157616 2.676017,-4.789252l0,0l-20.998947,-23.511187l1.303161,-4.200468c1.852842,-6.050067 2.905905,-12.536246 3.2171,-19.30462l0,0l0.191993,-4.406806l27.892943,-14.927687c-0.290829,-1.808653 -0.625206,-3.605353 -1.006374,-5.408226l0,0l-31.034575,-4.347229l-1.669523,-4.065006c-2.495893,-6.07978 -5.797486,-11.77037 -9.738971,-17.019218l0,0l-2.606367,-3.499323l11.804135,-29.402063c-1.367195,-1.213837 -2.769275,-2.391834 -4.209122,-3.534675l0,0l-26.348331,16.748273l-3.880489,-2.073939c-5.747777,-3.063314 -11.964106,-5.390297 -18.520705,-6.898264l0,0l-4.241051,-0.983706l-9.514809,-29.879439c-0.925124,-0.046969 -1.823915,-0.070762 -2.699468,-0.070762l0,0c-0.893102,0 -1.791865,0.023793 -2.722771,0.070762l0,0l-9.447819,29.68512l-4.302259,0.930789c-6.670084,1.448952 -13.031651,3.81141 -18.956975,6.91595l0,0l-3.871789,2.038194l-25.920797,-16.482988c-1.431128,1.142841 -2.836182,2.320839 -4.191592,3.534676l0,0l11.489837,28.630417l-2.699274,3.504934c-4.209149,5.472768 -7.708563,11.470012 -10.332368,17.908885l0,0l-1.660896,4.082504l-30.036892,4.206089c-0.381021,1.802873 -0.718372,3.599573 -1.000537,5.408226l0,0l26.927291,14.415305l0.165734,4.441616c0.282092,7.169723 1.466069,14.050441 3.502194,20.48346l0,0l1.332402,4.229564l-20.335955,22.780824c0.855288,1.637575 1.745342,3.233961 2.676285,4.795078l0,0l29.862171,-6.509569l2.972933,3.263609c4.581414,5.078359 9.814431,9.490599 15.579849,13.155004l0,0l3.720481,2.350206l-1.137417,31.0399c1.687146,0.671591 3.39462,1.302078 5.125369,1.885475l0,0l18.901817,-24.612839l4.316677,0.535829c3.257934,0.418342 6.428558,0.689343 9.584737,0.689343l0,0c3.394592,0 6.818241,-0.300321 10.317673,-0.801116l0,0l4.354628,-0.618375l19.047139,24.807158l0,0l0.00001,0.000009zm8.616017,-63.917876l4.165389,6.479866l-26.406538,17.396531l-9.372239,-14.604209l0,0c-3.409296,0.842342 -6.99299,1.337572 -10.722079,1.337572l0,0c-25.804514,0 -46.713335,-21.178414 -46.713335,-47.281637l0,0c0,-26.126623 20.908821,-47.299192 46.713335,-47.299192l0,0c25.775392,0 46.689856,21.172569 46.689856,47.299192l0,0c0,10.727406 -3.560289,20.66562 -9.529208,28.601031l0,0l5.174819,8.070856m-17.764483,2.491664l0.823203,-0.529984l-7.528088,-11.728967l4.363227,-4.41844c5.704404,-5.79085 9.203698,-13.690693 9.203698,-22.48616l0,0c-0.032031,-17.584602 -14.093397,-31.823545 -31.438825,-31.858702l0,0c-17.386279,0.035166 -31.433089,14.25632 -31.462192,31.858702l0,0c0.029103,17.567094 14.09045,31.805691 31.462192,31.841184l0,0c3.880277,0 7.61537,-0.807167 11.23103,-2.209197l0,0l5.765326,-2.23861l7.580429,11.770174l0,0z" fill-opacity="null" stroke-opacity="null" stroke-width="1.5" stroke="#000" fill="#fff"/>
  <path transform="rotate(1.8279298543930054 336.4175415039122,544.0733642578123) " id="svg_16" d="m343.944262,637.929508c-2.594785,0.247273 -5.247666,0.41822 -7.976117,0.41822l0,0c-2.44055,0 -4.811293,-0.135304 -7.123931,-0.335908l0,0l-20.024475,26.062016l-4.924612,-1.413712c-5.779919,-1.643551 -11.394104,-3.70551 -16.792882,-6.179712l0,0l-4.680278,-2.144327l1.204232,-32.73649c-4.2557,-3.016373 -8.226187,-6.374247 -11.903194,-10.055955l0,0l-31.659929,6.886714l-2.891405,-4.300832c-3.391738,-5.048459 -6.283125,-10.338777 -8.845722,-15.687539l0,0l-2.225328,-4.671821l21.496473,-24.094265c-1.343976,-5.101751 -2.23402,-10.368425 -2.693622,-15.734863l0,0l-28.486433,-15.251783l0.517744,-5.166677c0.610954,-6.179815 1.791846,-12.09426 3.202655,-17.77908l0,0l1.259611,-5.04296l31.773387,-4.453559c2.265931,-4.84245 4.933488,-9.431528 7.938249,-13.743891l0,0l-12.124068,-30.22685l3.659385,-3.628903c4.302065,-4.241583 8.906892,-8.088336 13.7122,-11.6054l0,0l4.162618,-3.039567l27.427597,17.443181c4.622284,-2.155999 9.456723,-3.929234 14.465744,-5.290187l0,0l9.942509,-31.240139l5.125406,-0.394586c2.760556,-0.206122 5.727615,-0.447756 8.953452,-0.447756l0,0c3.217175,0 6.175385,0.241634 8.936061,0.447756l0,0l5.125268,0.394586l10.050082,31.564385c4.817075,1.360597 9.485845,3.098563 13.959694,5.207696l0,0l27.811591,-17.691109l4.1771,3.039895c4.805438,3.511172 9.418744,7.369662 13.712395,11.593634l0,0l3.673765,3.628903l-12.496415,31.122455c2.722743,4.005794 5.17772,8.24747 7.275082,12.706978l0,0l32.765371,4.594923l1.274029,5.042633c1.431174,5.679171 2.606414,11.593606 3.202563,17.785216l0,0l0.5179,5.166349l-29.481354,15.781897c-0.442062,4.895732 -1.22747,9.714641 -2.399782,14.409637l0,0l22.212028,24.848656l-2.233928,4.689029c-2.553961,5.366869 -5.430911,10.674648 -8.837169,15.705562l0,0l-2.891377,4.288533l-32.4453,-7.039479c-3.438298,3.48144 -7.16156,6.686259 -11.141005,9.578785l0,0l1.236226,33.378611l-4.691943,2.150285c-5.404709,2.462446 -11.010064,4.530222 -16.789789,6.173839l0,0l-4.942281,1.413824l-20.068088,-26.126857l0,0l0.00001,0.000009zm25.749143,8.35957c1.730869,-0.583396 3.432506,-1.213883 5.116595,-1.885475l0,0l-1.157682,-31.522812l3.650675,-2.37427c5.468576,-3.593298 10.448503,-7.905754 14.87003,-12.80099l0,0l2.943737,-3.263506l30.700142,6.656611c0.922122,-1.561211 1.815048,-3.157616 2.676017,-4.789252l0,0l-20.998947,-23.511187l1.303161,-4.200468c1.852842,-6.050067 2.905905,-12.536246 3.2171,-19.30462l0,0l0.191993,-4.406806l27.892943,-14.927687c-0.290829,-1.808653 -0.625206,-3.605353 -1.006374,-5.408226l0,0l-31.034575,-4.347229l-1.669523,-4.065006c-2.495893,-6.07978 -5.797486,-11.77037 -9.738971,-17.019218l0,0l-2.606367,-3.499323l11.804135,-29.402063c-1.367195,-1.213837 -2.769275,-2.391834 -4.209122,-3.534675l0,0l-26.348331,16.748273l-3.880489,-2.073939c-5.747777,-3.063314 -11.964106,-5.390297 -18.520705,-6.898264l0,0l-4.241051,-0.983706l-9.514809,-29.879439c-0.925124,-0.046969 -1.823915,-0.070762 -2.699468,-0.070762l0,0c-0.893102,0 -1.791865,0.023793 -2.722771,0.070762l0,0l-9.447819,29.68512l-4.302259,0.930789c-6.670084,1.448952 -13.031651,3.81141 -18.956975,6.91595l0,0l-3.871789,2.038194l-25.920797,-16.482988c-1.431128,1.142841 -2.836182,2.320839 -4.191592,3.534676l0,0l11.489837,28.630417l-2.699274,3.504934c-4.209149,5.472768 -7.708563,11.470012 -10.332368,17.908885l0,0l-1.660896,4.082504l-30.036892,4.206089c-0.381021,1.802873 -0.718372,3.599573 -1.000537,5.408226l0,0l26.927291,14.415305l0.165734,4.441616c0.282092,7.169723 1.466069,14.050441 3.502194,20.48346l0,0l1.332402,4.229564l-20.335955,22.780824c0.855288,1.637575 1.745342,3.233961 2.676285,4.795078l0,0l29.862171,-6.509569l2.972933,3.263609c4.581414,5.078359 9.814431,9.490599 15.579849,13.155004l0,0l3.720481,2.350206l-1.137417,31.0399c1.687146,0.671591 3.39462,1.302078 5.125369,1.885475l0,0l18.901817,-24.612839l4.316677,0.535829c3.257934,0.418342 6.428558,0.689343 9.584737,0.689343l0,0c3.394592,0 6.818241,-0.300321 10.317673,-0.801116l0,0l4.354628,-0.618375l19.047139,24.807158l0,0l0.00001,0.000009zm8.616017,-63.917876l4.165389,6.479866l-26.406538,17.396531l-9.372239,-14.604209l0,0c-3.409296,0.842342 -6.99299,1.337572 -10.722079,1.337572l0,0c-25.804514,0 -46.713335,-21.178414 -46.713335,-47.281637l0,0c0,-26.126623 20.908821,-47.299192 46.713335,-47.299192l0,0c25.775392,0 46.689856,21.172569 46.689856,47.299192l0,0c0,10.727406 -3.560289,20.66562 -9.529208,28.601031l0,0l5.174819,8.070856m-17.764483,2.491664l0.823203,-0.529984l-7.528088,-11.728967l4.363227,-4.41844c5.704404,-5.79085 9.203698,-13.690693 9.203698,-22.48616l0,0c-0.032031,-17.584602 -14.093397,-31.823545 -31.438825,-31.858702l0,0c-17.386279,0.035166 -31.433089,14.25632 -31.462192,31.858702l0,0c0.029103,17.567094 14.09045,31.805691 31.462192,31.841184l0,0c3.880277,0 7.61537,-0.807167 11.23103,-2.209197l0,0l5.765326,-2.23861l7.580429,11.770174l0,0z" fill-opacity="null" stroke-opacity="null" stroke-width="1.5" stroke="#000" fill="#fff"/>
  <path transform="rotate(1.8279298543930054 336.4175415039122,544.0733642578123) " id="svg_17" d="m343.944262,637.929508c-2.594785,0.247273 -5.247666,0.41822 -7.976117,0.41822l0,0c-2.44055,0 -4.811293,-0.135304 -7.123931,-0.335908l0,0l-20.024475,26.062016l-4.924612,-1.413712c-5.779919,-1.643551 -11.394104,-3.70551 -16.792882,-6.179712l0,0l-4.680278,-2.144327l1.204232,-32.73649c-4.2557,-3.016373 -8.226187,-6.374247 -11.903194,-10.055955l0,0l-31.659929,6.886714l-2.891405,-4.300832c-3.391738,-5.048459 -6.283125,-10.338777 -8.845722,-15.687539l0,0l-2.225328,-4.671821l21.496473,-24.094265c-1.343976,-5.101751 -2.23402,-10.368425 -2.693622,-15.734863l0,0l-28.486433,-15.251783l0.517744,-5.166677c0.610954,-6.179815 1.791846,-12.09426 3.202655,-17.77908l0,0l1.259611,-5.04296l31.773387,-4.453559c2.265931,-4.84245 4.933488,-9.431528 7.938249,-13.743891l0,0l-12.124068,-30.22685l3.659385,-3.628903c4.302065,-4.241583 8.906892,-8.088336 13.7122,-11.6054l0,0l4.162618,-3.039567l27.427597,17.443181c4.622284,-2.155999 9.456723,-3.929234 14.465744,-5.290187l0,0l9.942509,-31.240139l5.125406,-0.394586c2.760556,-0.206122 5.727615,-0.447756 8.953452,-0.447756l0,0c3.217175,0 6.175385,0.241634 8.936061,0.447756l0,0l5.125268,0.394586l10.050082,31.564385c4.817075,1.360597 9.485845,3.098563 13.959694,5.207696l0,0l27.811591,-17.691109l4.1771,3.039895c4.805438,3.511172 9.418744,7.369662 13.712395,11.593634l0,0l3.673765,3.628903l-12.496415,31.122455c2.722743,4.005794 5.17772,8.24747 7.275082,12.706978l0,0l32.765371,4.594923l1.274029,5.042633c1.431174,5.679171 2.606414,11.593606 3.202563,17.785216l0,0l0.5179,5.166349l-29.481354,15.781897c-0.442062,4.895732 -1.22747,9.714641 -2.399782,14.409637l0,0l22.212028,24.848656l-2.233928,4.689029c-2.553961,5.366869 -5.430911,10.674648 -8.837169,15.705562l0,0l-2.891377,4.288533l-32.4453,-7.039479c-3.438298,3.48144 -7.16156,6.686259 -11.141005,9.578785l0,0l1.236226,33.378611l-4.691943,2.150285c-5.404709,2.462446 -11.010064,4.530222 -16.789789,6.173839l0,0l-4.942281,1.413824l-20.068088,-26.126857l0,0l0.00001,0.000009zm25.749143,8.35957c1.730869,-0.583396 3.432506,-1.213883 5.116595,-1.885475l0,0l-1.157682,-31.522812l3.650675,-2.37427c5.468576,-3.593298 10.448503,-7.905754 14.87003,-12.80099l0,0l2.943737,-3.263506l30.700142,6.656611c0.922122,-1.561211 1.815048,-3.157616 2.676017,-4.789252l0,0l-20.998947,-23.511187l1.303161,-4.200468c1.852842,-6.050067 2.905905,-12.536246 3.2171,-19.30462l0,0l0.191993,-4.406806l27.892943,-14.927687c-0.290829,-1.808653 -0.625206,-3.605353 -1.006374,-5.408226l0,0l-31.034575,-4.347229l-1.669523,-4.065006c-2.495893,-6.07978 -5.797486,-11.77037 -9.738971,-17.019218l0,0l-2.606367,-3.499323l11.804135,-29.402063c-1.367195,-1.213837 -2.769275,-2.391834 -4.209122,-3.534675l0,0l-26.348331,16.748273l-3.880489,-2.073939c-5.747777,-3.063314 -11.964106,-5.390297 -18.520705,-6.898264l0,0l-4.241051,-0.983706l-9.514809,-29.879439c-0.925124,-0.046969 -1.823915,-0.070762 -2.699468,-0.070762l0,0c-0.893102,0 -1.791865,0.023793 -2.722771,0.070762l0,0l-9.447819,29.68512l-4.302259,0.930789c-6.670084,1.448952 -13.031651,3.81141 -18.956975,6.91595l0,0l-3.871789,2.038194l-25.920797,-16.482988c-1.431128,1.142841 -2.836182,2.320839 -4.191592,3.534676l0,0l11.489837,28.630417l-2.699274,3.504934c-4.209149,5.472768 -7.708563,11.470012 -10.332368,17.908885l0,0l-1.660896,4.082504l-30.036892,4.206089c-0.381021,1.802873 -0.718372,3.599573 -1.000537,5.408226l0,0l26.927291,14.415305l0.165734,4.441616c0.282092,7.169723 1.466069,14.050441 3.502194,20.48346l0,0l1.332402,4.229564l-20.335955,22.780824c0.855288,1.637575 1.745342,3.233961 2.676285,4.795078l0,0l29.862171,-6.509569l2.972933,3.263609c4.581414,5.078359 9.814431,9.490599 15.579849,13.155004l0,0l3.720481,2.350206l-1.137417,31.0399c1.687146,0.671591 3.39462,1.302078 5.125369,1.885475l0,0l18.901817,-24.612839l4.316677,0.535829c3.257934,0.418342 6.428558,0.689343 9.584737,0.689343l0,0c3.394592,0 6.818241,-0.300321 10.317673,-0.801116l0,0l4.354628,-0.618375l19.047139,24.807158l0,0l0.00001,0.000009zm8.616017,-63.917876l4.165389,6.479866l-26.406538,17.396531l-9.372239,-14.604209l0,0c-3.409296,0.842342 -6.99299,1.337572 -10.722079,1.337572l0,0c-25.804514,0 -46.713335,-21.178414 -46.713335,-47.281637l0,0c0,-26.126623 20.908821,-47.299192 46.713335,-47.299192l0,0c25.775392,0 46.689856,21.172569 46.689856,47.299192l0,0c0,10.727406 -3.560289,20.66562 -9.529208,28.601031l0,0l5.174819,8.070856m-17.764483,2.491664l0.823203,-0.529984l-7.528088,-11.728967l4.363227,-4.41844c5.704404,-5.79085 9.203698,-13.690693 9.203698,-22.48616l0,0c-0.032031,-17.584602 -14.093397,-31.823545 -31.438825,-31.858702l0,0c-17.386279,0.035166 -31.433089,14.25632 -31.462192,31.858702l0,0c0.029103,17.567094 14.09045,31.805691 31.462192,31.841184l0,0c3.880277,0 7.61537,-0.807167 11.23103,-2.209197l0,0l5.765326,-2.23861l7.580429,11.770174l0,0z" fill-opacity="null" stroke-opacity="null" stroke-width="1.5" stroke="#000" fill="#fff"/>
  <path transform="rotate(5.608997344970703 182.41482543945014,704.0761718750001) " id="svg_18" d="m189.941543,797.932316c-2.594785,0.247273 -5.247666,0.41822 -7.976117,0.41822l0,0c-2.44055,0 -4.811293,-0.135304 -7.123931,-0.335908l0,0l-20.024475,26.062016l-4.924612,-1.413712c-5.779919,-1.643551 -11.394104,-3.70551 -16.792882,-6.179712l0,0l-4.680278,-2.144327l1.204232,-32.73649c-4.2557,-3.016373 -8.226187,-6.374247 -11.903194,-10.055955l0,0l-31.659929,6.886714l-2.891405,-4.300832c-3.391738,-5.048459 -6.283125,-10.338777 -8.845722,-15.687539l0,0l-2.225328,-4.671821l21.496473,-24.094265c-1.343976,-5.101751 -2.23402,-10.368425 -2.693622,-15.734863l0,0l-28.486433,-15.251783l0.517744,-5.166677c0.610954,-6.179815 1.791846,-12.09426 3.202655,-17.77908l0,0l1.259611,-5.04296l31.773387,-4.453559c2.265931,-4.84245 4.933488,-9.431528 7.938249,-13.743891l0,0l-12.124068,-30.22685l3.659385,-3.628903c4.302065,-4.241583 8.906892,-8.088336 13.7122,-11.6054l0,0l4.162618,-3.039567l27.427597,17.443181c4.622284,-2.155999 9.456723,-3.929234 14.465744,-5.290187l0,0l9.942509,-31.240139l5.125406,-0.394586c2.760556,-0.206122 5.727615,-0.447756 8.953452,-0.447756l0,0c3.217175,0 6.175385,0.241634 8.936061,0.447756l0,0l5.125268,0.394586l10.050082,31.564385c4.817075,1.360597 9.485845,3.098563 13.959694,5.207696l0,0l27.811591,-17.691109l4.1771,3.039895c4.805438,3.511172 9.418744,7.369662 13.712395,11.593634l0,0l3.673765,3.628903l-12.496415,31.122455c2.722743,4.005794 5.17772,8.24747 7.275082,12.706978l0,0l32.765371,4.594923l1.274029,5.042633c1.431174,5.679171 2.606414,11.593606 3.202563,17.785216l0,0l0.5179,5.166349l-29.481354,15.781897c-0.442062,4.895732 -1.22747,9.714641 -2.399782,14.409637l0,0l22.212028,24.848656l-2.233928,4.689029c-2.553961,5.366869 -5.430911,10.674648 -8.837169,15.705562l0,0l-2.891377,4.288533l-32.4453,-7.039479c-3.438298,3.48144 -7.16156,6.686259 -11.141005,9.578785l0,0l1.236226,33.378611l-4.691943,2.150285c-5.404709,2.462446 -11.010064,4.530222 -16.789789,6.173839l0,0l-4.942281,1.413824l-20.068088,-26.126857l0,0l0.00001,0.000009zm25.749143,8.35957c1.730869,-0.583396 3.432506,-1.213883 5.116595,-1.885475l0,0l-1.157682,-31.522812l3.650675,-2.37427c5.468576,-3.593298 10.448503,-7.905754 14.87003,-12.80099l0,0l2.943737,-3.263506l30.700142,6.656611c0.922122,-1.561211 1.815048,-3.157616 2.676017,-4.789252l0,0l-20.998947,-23.511187l1.303161,-4.200468c1.852842,-6.050067 2.905905,-12.536246 3.2171,-19.30462l0,0l0.191993,-4.406806l27.892943,-14.927687c-0.290829,-1.808653 -0.625206,-3.605353 -1.006374,-5.408226l0,0l-31.034575,-4.347229l-1.669523,-4.065006c-2.495893,-6.07978 -5.797486,-11.77037 -9.738971,-17.019218l0,0l-2.606367,-3.499323l11.804135,-29.402063c-1.367195,-1.213837 -2.769275,-2.391834 -4.209122,-3.534675l0,0l-26.348331,16.748273l-3.880489,-2.073939c-5.747777,-3.063314 -11.964106,-5.390297 -18.520705,-6.898264l0,0l-4.241051,-0.983706l-9.514809,-29.879439c-0.925124,-0.046969 -1.823915,-0.070762 -2.699468,-0.070762l0,0c-0.893102,0 -1.791865,0.023793 -2.722771,0.070762l0,0l-9.447819,29.68512l-4.302259,0.930789c-6.670084,1.448952 -13.031651,3.81141 -18.956975,6.91595l0,0l-3.871789,2.038194l-25.920797,-16.482988c-1.431128,1.142841 -2.836182,2.320839 -4.191592,3.534676l0,0l11.489837,28.630417l-2.699274,3.504934c-4.209149,5.472768 -7.708563,11.470012 -10.332368,17.908885l0,0l-1.660896,4.082504l-30.036892,4.206089c-0.381021,1.802873 -0.718372,3.599573 -1.000537,5.408226l0,0l26.927291,14.415305l0.165734,4.441616c0.282092,7.169723 1.466069,14.050441 3.502194,20.48346l0,0l1.332402,4.229564l-20.335955,22.780824c0.855288,1.637575 1.745342,3.233961 2.676285,4.795078l0,0l29.862171,-6.509569l2.972933,3.263609c4.581414,5.078359 9.814431,9.490599 15.579849,13.155004l0,0l3.720481,2.350206l-1.137417,31.0399c1.687146,0.671591 3.39462,1.302078 5.125369,1.885475l0,0l18.901817,-24.612839l4.316677,0.535829c3.257934,0.418342 6.428558,0.689343 9.584737,0.689343l0,0c3.394592,0 6.818241,-0.300321 10.317673,-0.801116l0,0l4.354628,-0.618375l19.047139,24.807158l0,0l0.00001,0.000009zm8.616017,-63.917876l4.165389,6.479866l-26.406538,17.396531l-9.372239,-14.604209l0,0c-3.409296,0.842342 -6.99299,1.337572 -10.722079,1.337572l0,0c-25.804514,0 -46.713335,-21.178414 -46.713335,-47.281637l0,0c0,-26.126623 20.908821,-47.299192 46.713335,-47.299192l0,0c25.775392,0 46.689856,21.172569 46.689856,47.299192l0,0c0,10.727406 -3.560289,20.66562 -9.529208,28.601031l0,0l5.174819,8.070856m-17.764483,2.491664l0.823203,-0.529984l-7.528088,-11.728967l4.363227,-4.41844c5.704404,-5.79085 9.203698,-13.690693 9.203698,-22.48616l0,0c-0.032031,-17.584602 -14.093397,-31.823545 -31.438825,-31.858702l0,0c-17.386279,0.035166 -31.433089,14.25632 -31.462192,31.858702l0,0c0.029103,17.567094 14.09045,31.805691 31.462192,31.841184l0,0c3.880277,0 7.61537,-0.807167 11.23103,-2.209197l0,0l5.765326,-2.23861l7.580429,11.770174l0,0z" fill-opacity="null" stroke-opacity="null" stroke-width="1.5" stroke="#000" fill="#fff"/>
  <path transform="rotate(1.8279298543930054 416.4178161621115,164.07185363769446) " id="svg_19" d="m423.944575,257.927991c-2.594785,0.247273 -5.247666,0.41822 -7.976117,0.41822l0,0c-2.44055,0 -4.811293,-0.135304 -7.123931,-0.335908l0,0l-20.024475,26.062016l-4.924612,-1.413712c-5.779919,-1.643551 -11.394104,-3.70551 -16.792882,-6.179712l0,0l-4.680278,-2.144327l1.204232,-32.73649c-4.2557,-3.016373 -8.226187,-6.374247 -11.903194,-10.055955l0,0l-31.659929,6.886714l-2.891405,-4.300832c-3.391738,-5.048459 -6.283125,-10.338777 -8.845722,-15.687539l0,0l-2.225328,-4.671821l21.496473,-24.094265c-1.343976,-5.101751 -2.23402,-10.368425 -2.693622,-15.734863l0,0l-28.486433,-15.251783l0.517744,-5.166677c0.610954,-6.179815 1.791846,-12.09426 3.202655,-17.77908l0,0l1.259611,-5.04296l31.773387,-4.453559c2.265931,-4.84245 4.933488,-9.431528 7.938249,-13.743891l0,0l-12.124068,-30.22685l3.659385,-3.628903c4.302065,-4.241583 8.906892,-8.088336 13.7122,-11.6054l0,0l4.162618,-3.039567l27.427597,17.443181c4.622284,-2.155999 9.456723,-3.929234 14.465744,-5.290187l0,0l9.942509,-31.240139l5.125406,-0.394586c2.760556,-0.206122 5.727615,-0.447756 8.953452,-0.447756l0,0c3.217175,0 6.175385,0.241634 8.936061,0.447756l0,0l5.125268,0.394586l10.050082,31.564385c4.817075,1.360597 9.485845,3.098563 13.959694,5.207696l0,0l27.811591,-17.691109l4.1771,3.039895c4.805438,3.511172 9.418744,7.369662 13.712395,11.593634l0,0l3.673765,3.628903l-12.496415,31.122455c2.722743,4.005794 5.17772,8.24747 7.275082,12.706978l0,0l32.765371,4.594923l1.274029,5.042633c1.431174,5.679171 2.606414,11.593606 3.202563,17.785216l0,0l0.5179,5.166349l-29.481354,15.781897c-0.442062,4.895732 -1.22747,9.714641 -2.399782,14.409637l0,0l22.212028,24.848656l-2.233928,4.689029c-2.553961,5.366869 -5.430911,10.674648 -8.837169,15.705562l0,0l-2.891377,4.288533l-32.4453,-7.039479c-3.438298,3.48144 -7.16156,6.686259 -11.141005,9.578785l0,0l1.236226,33.378611l-4.691943,2.150285c-5.404709,2.462446 -11.010064,4.530222 -16.789789,6.173839l0,0l-4.942281,1.413824l-20.068088,-26.126857l0,0l0.00001,0.000009zm25.749143,8.35957c1.730869,-0.583396 3.432506,-1.213883 5.116595,-1.885475l0,0l-1.157682,-31.522812l3.650675,-2.37427c5.468576,-3.593298 10.448503,-7.905754 14.87003,-12.80099l0,0l2.943737,-3.263506l30.700142,6.656611c0.922122,-1.561211 1.815048,-3.157616 2.676017,-4.789252l0,0l-20.998947,-23.511187l1.303161,-4.200468c1.852842,-6.050067 2.905905,-12.536246 3.2171,-19.30462l0,0l0.191993,-4.406806l27.892943,-14.927687c-0.290829,-1.808653 -0.625206,-3.605353 -1.006374,-5.408226l0,0l-31.034575,-4.347229l-1.669523,-4.065006c-2.495893,-6.07978 -5.797486,-11.77037 -9.738971,-17.019218l0,0l-2.606367,-3.499323l11.804135,-29.402063c-1.367195,-1.213837 -2.769275,-2.391834 -4.209122,-3.534675l0,0l-26.348331,16.748273l-3.880489,-2.073939c-5.747777,-3.063314 -11.964106,-5.390297 -18.520705,-6.898264l0,0l-4.241051,-0.983706l-9.514809,-29.879439c-0.925124,-0.046969 -1.823915,-0.070762 -2.699468,-0.070762l0,0c-0.893102,0 -1.791865,0.023793 -2.722771,0.070762l0,0l-9.447819,29.68512l-4.302259,0.930789c-6.670084,1.448952 -13.031651,3.81141 -18.956975,6.91595l0,0l-3.871789,2.038194l-25.920797,-16.482988c-1.431128,1.142841 -2.836182,2.320839 -4.191592,3.534676l0,0l11.489837,28.630417l-2.699274,3.504934c-4.209149,5.472768 -7.708563,11.470012 -10.332368,17.908885l0,0l-1.660896,4.082504l-30.036892,4.206089c-0.381021,1.802873 -0.718372,3.599573 -1.000537,5.408226l0,0l26.927291,14.415305l0.165734,4.441616c0.282092,7.169723 1.466069,14.050441 3.502194,20.48346l0,0l1.332402,4.229564l-20.335955,22.780824c0.855288,1.637575 1.745342,3.233961 2.676285,4.795078l0,0l29.862171,-6.509569l2.972933,3.263609c4.581414,5.078359 9.814431,9.490599 15.579849,13.155004l0,0l3.720481,2.350206l-1.137417,31.0399c1.687146,0.671591 3.39462,1.302078 5.125369,1.885475l0,0l18.901817,-24.612839l4.316677,0.535829c3.257934,0.418342 6.428558,0.689343 9.584737,0.689343l0,0c3.394592,0 6.818241,-0.300321 10.317673,-0.801116l0,0l4.354628,-0.618375l19.047139,24.807158l0,0l0.00001,0.000009zm8.616017,-63.917876l4.165389,6.479866l-26.406538,17.396531l-9.372239,-14.604209l0,0c-3.409296,0.842342 -6.99299,1.337572 -10.722079,1.337572l0,0c-25.804514,0 -46.713335,-21.178414 -46.713335,-47.281637l0,0c0,-26.126623 20.908821,-47.299192 46.713335,-47.299192l0,0c25.775392,0 46.689856,21.172569 46.689856,47.299192l0,0c0,10.727406 -3.560289,20.66562 -9.529208,28.601031l0,0l5.174819,8.070856m-17.764483,2.491664l0.823203,-0.529984l-7.528088,-11.728967l4.363227,-4.41844c5.704404,-5.79085 9.203698,-13.690693 9.203698,-22.48616l0,0c-0.032031,-17.584602 -14.093397,-31.823545 -31.438825,-31.858702l0,0c-17.386279,0.035166 -31.433089,14.25632 -31.462192,31.858702l0,0c0.029103,17.567094 14.09045,31.805691 31.462192,31.841184l0,0c3.880277,0 7.61537,-0.807167 11.23103,-2.209197l0,0l5.765326,-2.23861l7.580429,11.770174l0,0z" fill-opacity="null" stroke-opacity="null" stroke-width="1.5" stroke="#000" fill="#fff"/>
  <path id="svg_20" d="m935.952217,915.928211c-2.594785,0.247273 -5.247666,0.41822 -7.976117,0.41822l0,0c-2.44055,0 -4.811293,-0.135304 -7.123931,-0.335908l0,0l-20.024475,26.062016l-4.924612,-1.413712c-5.779919,-1.643551 -11.394104,-3.70551 -16.792882,-6.179712l0,0l-4.680278,-2.144327l1.204232,-32.73649c-4.2557,-3.016373 -8.226187,-6.374247 -11.903194,-10.055955l0,0l-31.659929,6.886714l-2.891405,-4.300832c-3.391738,-5.048459 -6.283125,-10.338777 -8.845722,-15.687539l0,0l-2.225328,-4.671821l21.496473,-24.094265c-1.343976,-5.101751 -2.23402,-10.368425 -2.693622,-15.734863l0,0l-28.486433,-15.251783l0.517744,-5.166677c0.610954,-6.179815 1.791846,-12.09426 3.202655,-17.77908l0,0l1.259611,-5.04296l31.773387,-4.453559c2.265931,-4.84245 4.933488,-9.431528 7.938249,-13.743891l0,0l-12.124068,-30.22685l3.659385,-3.628903c4.302065,-4.241583 8.906892,-8.088336 13.7122,-11.6054l0,0l4.162618,-3.039567l27.427597,17.443181c4.622284,-2.155999 9.456723,-3.929234 14.465744,-5.290187l0,0l9.942509,-31.240139l5.125406,-0.394586c2.760556,-0.206122 5.727615,-0.447756 8.953452,-0.447756l0,0c3.217175,0 6.175385,0.241634 8.936061,0.447756l0,0l5.125268,0.394586l10.050082,31.564385c4.817075,1.360597 9.485845,3.098563 13.959694,5.207696l0,0l27.811591,-17.691109l4.1771,3.039895c4.805438,3.511172 9.418744,7.369662 13.712395,11.593634l0,0l3.673765,3.628903l-12.496415,31.122455c2.722743,4.005794 5.17772,8.24747 7.275082,12.706978l0,0l32.765371,4.594923l1.274029,5.042633c1.431174,5.679171 2.606414,11.593606 3.202563,17.785216l0,0l0.5179,5.166349l-29.481354,15.781897c-0.442062,4.895732 -1.22747,9.714641 -2.399782,14.409637l0,0l22.212028,24.848656l-2.233928,4.689029c-2.553961,5.366869 -5.430911,10.674648 -8.837169,15.705562l0,0l-2.891377,4.288533l-32.4453,-7.039479c-3.438298,3.48144 -7.16156,6.686259 -11.141005,9.578785l0,0l1.236226,33.378611l-4.691943,2.150285c-5.404709,2.462446 -11.010064,4.530222 -16.789789,6.173839l0,0l-4.942281,1.413824l-20.068088,-26.126857l0,0l0.00001,0.000009zm25.749143,8.35957c1.730869,-0.583396 3.432506,-1.213883 5.116595,-1.885475l0,0l-1.157682,-31.522812l3.650675,-2.37427c5.468576,-3.593298 10.448503,-7.905754 14.87003,-12.80099l0,0l2.943737,-3.263506l30.700142,6.656611c0.922122,-1.561211 1.815048,-3.157616 2.676017,-4.789252l0,0l-20.998947,-23.511187l1.303161,-4.200468c1.852842,-6.050067 2.905905,-12.536246 3.2171,-19.30462l0,0l0.191993,-4.406806l27.892943,-14.927687c-0.290829,-1.808653 -0.625206,-3.605353 -1.006374,-5.408226l0,0l-31.034575,-4.347229l-1.669523,-4.065006c-2.495893,-6.07978 -5.797486,-11.77037 -9.738971,-17.019218l0,0l-2.606367,-3.499323l11.804135,-29.402063c-1.367195,-1.213837 -2.769275,-2.391834 -4.209122,-3.534675l0,0l-26.348331,16.748273l-3.880489,-2.073939c-5.747777,-3.063314 -11.964106,-5.390297 -18.520705,-6.898264l0,0l-4.241051,-0.983706l-9.514809,-29.879439c-0.925124,-0.046969 -1.823915,-0.070762 -2.699468,-0.070762l0,0c-0.893102,0 -1.791865,0.023793 -2.722771,0.070762l0,0l-9.447819,29.68512l-4.302259,0.930789c-6.670084,1.448952 -13.031651,3.81141 -18.956975,6.91595l0,0l-3.871789,2.038194l-25.920797,-16.482988c-1.431128,1.142841 -2.836182,2.320839 -4.191592,3.534676l0,0l11.489837,28.630417l-2.699274,3.504934c-4.209149,5.472768 -7.708563,11.470012 -10.332368,17.908885l0,0l-1.660896,4.082504l-30.036892,4.206089c-0.381021,1.802873 -0.718372,3.599573 -1.000537,5.408226l0,0l26.927291,14.415305l0.165734,4.441616c0.282092,7.169723 1.466069,14.050441 3.502194,20.48346l0,0l1.332402,4.229564l-20.335955,22.780824c0.855288,1.637575 1.745342,3.233961 2.676285,4.795078l0,0l29.862171,-6.509569l2.972933,3.263609c4.581414,5.078359 9.814431,9.490599 15.579849,13.155004l0,0l3.720481,2.350206l-1.137417,31.0399c1.687146,0.671591 3.39462,1.302078 5.125369,1.885475l0,0l18.901817,-24.612839l4.316677,0.535829c3.257934,0.418342 6.428558,0.689343 9.584737,0.689343l0,0c3.394592,0 6.818241,-0.300321 10.317673,-0.801116l0,0l4.354628,-0.618375l19.047139,24.807158l0,0l0.00001,0.000009zm8.616017,-63.917876l4.165389,6.479866l-26.406538,17.396531l-9.372239,-14.604209l0,0c-3.409296,0.842342 -6.99299,1.337572 -10.722079,1.337572l0,0c-25.804514,0 -46.713335,-21.178414 -46.713335,-47.281637l0,0c0,-26.126623 20.908821,-47.299192 46.713335,-47.299192l0,0c25.775392,0 46.689856,21.172569 46.689856,47.299192l0,0c0,10.727406 -3.560289,20.66562 -9.529208,28.601031l0,0l5.174819,8.070856m-17.764483,2.491664l0.823203,-0.529984l-7.528088,-11.728967l4.363227,-4.41844c5.704404,-5.79085 9.203698,-13.690693 9.203698,-22.48616l0,0c-0.032031,-17.584602 -14.093397,-31.823545 -31.438825,-31.858702l0,0c-17.386279,0.035166 -31.433089,14.25632 -31.462192,31.858702l0,0c0.029103,17.567094 14.09045,31.805691 31.462192,31.841184l0,0c3.880277,0 7.61537,-0.807167 11.23103,-2.209197l0,0l5.765326,-2.23861l7.580429,11.770174l0,0z" fill-opacity="null" stroke-opacity="null" stroke-width="1.5" stroke="#000" fill="#fff"/>
  <path stroke="#000" id="svg_21" d="m752.970911,574.208294c-2.603395,0.242739 -5.265079,0.410551 -8.002584,0.410551l0,0c-2.448649,0 -4.827258,-0.132823 -7.14757,-0.329749l0,0l-20.090922,25.584134l-4.940953,-1.38779c-5.799099,-1.613414 -11.431913,-3.637564 -16.848606,-6.066399l0,0l-4.695809,-2.105008l1.208228,-32.136222c-4.269822,-2.961064 -8.253484,-6.257367 -11.942692,-9.871565l0,0l-31.764986,6.760437l-2.901,-4.22197c-3.402993,-4.955889 -6.303974,-10.149202 -8.875075,-15.399887l0,0l-2.232712,-4.586157l21.567805,-23.652464c-1.348436,-5.008203 -2.241433,-10.178306 -2.70256,-15.446343l0,0l-28.58096,-14.972121l0.519462,-5.071939c0.612981,-6.0665 1.797792,-11.872495 3.213282,-17.453076l0,0l1.263791,-4.95049l31.878821,-4.371897c2.27345,-4.753657 4.949859,-9.258588 7.964591,-13.491878l0,0l-12.164299,-29.6726l3.671528,-3.562362c4.316341,-4.163808 8.936448,-7.940025 13.757701,-11.392599l0,0l4.176431,-2.983832l27.51861,17.123337c4.637622,-2.116466 9.488103,-3.857186 14.513746,-5.193184l0,0l9.975501,-30.667309l5.142414,-0.387351c2.769716,-0.202342 5.746621,-0.439546 8.983162,-0.439546l0,0c3.227851,0 6.195877,0.237203 8.965714,0.439546l0,0l5.142275,0.387351l10.083431,30.985609c4.83306,1.335649 9.517322,3.041747 14.006017,5.112206l0,0l27.903878,-17.366719l4.190961,2.984154c4.821384,3.44679 9.449998,7.234529 13.757897,11.381049l0,0l3.685956,3.562362l-12.537882,30.551783c2.731778,3.932342 5.194901,8.096241 7.299223,12.473978l0,0l32.874097,4.510669l1.278257,4.950169c1.435923,5.575036 2.615063,11.381022 3.21319,17.4591l0,0l0.519619,5.071617l-29.579182,15.492515c-0.443529,4.805962 -1.231543,9.53651 -2.407745,14.145417l0,0l22.285734,24.393022l-2.241341,4.603049c-2.562436,5.26846 -5.448932,10.478914 -8.866493,15.417579l0,0l-2.900971,4.209897l-32.552964,-6.910401c-3.449707,3.417603 -7.185324,6.563657 -11.177974,9.403145l0,0l1.240328,32.766569l-4.707512,2.110857c-5.422643,2.417294 -11.046599,4.447154 -16.845503,6.060633l0,0l-4.958681,1.3879l-20.13468,-25.647786l0,0l0.00001,0.000009zm25.834587,8.206286c1.736613,-0.572699 3.443896,-1.191625 5.133573,-1.850902l0,0l-1.161524,-30.944799l3.662789,-2.330735c5.486722,-3.52741 10.483174,-7.760791 14.919373,-12.566266l0,0l2.953505,-3.203665l30.802015,6.534553c0.925182,-1.532584 1.821071,-3.099717 2.684897,-4.701435l0,0l-21.068628,-23.080078l1.307485,-4.123447c1.85899,-5.939131 2.915548,-12.306377 3.227775,-18.950644l0,0l0.19263,-4.326001l27.9855,-14.653968c-0.291794,-1.775489 -0.627281,-3.539244 -1.009713,-5.309059l0,0l-31.137557,-4.267517l-1.675063,-3.990469c-2.504175,-5.968299 -5.816724,-11.554544 -9.771288,-16.707148l0,0l-2.615016,-3.435158l11.843305,-28.862936c-1.371732,-1.19158 -2.778464,-2.347976 -4.223089,-3.469862l0,0l-26.435763,16.441171l-3.893366,-2.035911c-5.76685,-3.007144 -12.003807,-5.291459 -18.582162,-6.771775l0,0l-4.255124,-0.965668l-9.546382,-29.331559c-0.928194,-0.046108 -1.829967,-0.069464 -2.708426,-0.069464l0,0c-0.896066,0 -1.797811,0.023357 -2.731806,0.069464l0,0l-9.47917,29.140803l-4.316535,0.913722c-6.692217,1.422384 -13.074894,3.741523 -19.01988,6.789137l0,0l-3.884637,2.000821l-26.00681,-16.18075c-1.435877,1.121885 -2.845593,2.278283 -4.205501,3.469863l0,0l11.527964,28.105439l-2.708231,3.440666c-4.223116,5.372417 -7.734142,11.259694 -10.366654,17.580501l0,0l-1.666407,4.007646l-30.136564,4.128965c-0.382285,1.769815 -0.720756,3.53357 -1.003857,5.309059l0,0l27.016644,14.150981l0.166284,4.360173c0.283028,7.038256 1.470934,13.792807 3.513815,20.107868l0,0l1.336823,4.152009l-20.403436,22.363107c0.858126,1.607548 1.751134,3.174662 2.685166,4.707154l0,0l29.961263,-6.390207l2.982798,3.203766c4.596617,4.98524 9.846998,9.316576 15.631548,12.913789l0,0l3.732827,2.307112l-1.141191,30.470741c1.692744,0.659276 3.405884,1.278203 5.142377,1.850902l0,0l18.964539,-24.161529l4.331001,0.526004c3.268745,0.410671 6.44989,0.676703 9.616542,0.676703l0,0c3.405856,0 6.840866,-0.294814 10.35191,-0.786426l0,0l4.369078,-0.607036l19.110343,24.352285l0,0l0.00001,0.000009zm8.644608,-62.745855l4.179211,6.361049l-26.494163,17.077542l-9.403339,-14.336421l0,0c-3.420609,0.826897 -7.016195,1.313046 -10.757658,1.313046l0,0c-25.890141,0 -46.868344,-20.790079 -46.868344,-46.414664l0,0c0,-25.647556 20.978203,-46.431897 46.868344,-46.431897l0,0c25.860923,0 46.844787,20.784341 46.844787,46.431897l0,0c0,10.530704 -3.572103,20.286688 -9.560829,28.076592l0,0l5.191991,7.922866m-17.823431,2.445976l0.825935,-0.520266l-7.553069,-11.5139l4.377706,-4.337422c5.723333,-5.684667 9.234239,-13.439656 9.234239,-22.073846l0,0c-0.032137,-17.262164 -14.140163,-31.240017 -31.543149,-31.27453l0,0c-17.443972,0.034521 -31.537394,13.994911 -31.566593,31.27453l0,0c0.0292,17.244978 14.137206,31.222491 31.566593,31.257333l0,0c3.893153,0 7.64064,-0.792366 11.268298,-2.168688l0,0l5.784457,-2.197562l7.605583,11.554352l0,0z" fill-opacity="null" stroke-opacity="null" stroke-width="1.5" fill="#fff"/>
  <path id="svg_22" d="m405.944773,851.930136c-2.594785,0.247273 -5.247666,0.41822 -7.976117,0.41822l0,0c-2.44055,0 -4.811293,-0.135304 -7.123931,-0.335908l0,0l-20.024475,26.062016l-4.924612,-1.413712c-5.779919,-1.643551 -11.394104,-3.70551 -16.792882,-6.179712l0,0l-4.680278,-2.144327l1.204232,-32.73649c-4.2557,-3.016373 -8.226187,-6.374247 -11.903194,-10.055955l0,0l-31.659929,6.886714l-2.891405,-4.300832c-3.391738,-5.048459 -6.283125,-10.338777 -8.845722,-15.687539l0,0l-2.225328,-4.671821l21.496473,-24.094265c-1.343976,-5.101751 -2.23402,-10.368425 -2.693622,-15.734863l0,0l-28.486433,-15.251783l0.517744,-5.166677c0.610954,-6.179815 1.791846,-12.09426 3.202655,-17.77908l0,0l1.259611,-5.04296l31.773387,-4.453559c2.265931,-4.84245 4.933488,-9.431528 7.938249,-13.743891l0,0l-12.124068,-30.22685l3.659385,-3.628903c4.302065,-4.241583 8.906892,-8.088336 13.7122,-11.6054l0,0l4.162618,-3.039567l27.427597,17.443181c4.622284,-2.155999 9.456723,-3.929234 14.465744,-5.290187l0,0l9.942509,-31.240139l5.125406,-0.394586c2.760556,-0.206122 5.727615,-0.447756 8.953452,-0.447756l0,0c3.217175,0 6.175385,0.241634 8.936061,0.447756l0,0l5.125268,0.394586l10.050082,31.564385c4.817075,1.360597 9.485845,3.098563 13.959694,5.207696l0,0l27.811591,-17.691109l4.1771,3.039895c4.805438,3.511172 9.418744,7.369662 13.712395,11.593634l0,0l3.673765,3.628903l-12.496415,31.122455c2.722743,4.005794 5.17772,8.24747 7.275082,12.706978l0,0l32.765371,4.594923l1.274029,5.042633c1.431174,5.679171 2.606414,11.593606 3.202563,17.785216l0,0l0.5179,5.166349l-29.481354,15.781897c-0.442062,4.895732 -1.22747,9.714641 -2.399782,14.409637l0,0l22.212028,24.848656l-2.233928,4.689029c-2.553961,5.366869 -5.430911,10.674648 -8.837169,15.705562l0,0l-2.891377,4.288533l-32.4453,-7.039479c-3.438298,3.48144 -7.16156,6.686259 -11.141005,9.578785l0,0l1.236226,33.378611l-4.691943,2.150285c-5.404709,2.462446 -11.010064,4.530222 -16.789789,6.173839l0,0l-4.942281,1.413824l-20.068088,-26.126857l0,0l0.00001,0.000009zm25.749143,8.35957c1.730869,-0.583396 3.432506,-1.213883 5.116595,-1.885475l0,0l-1.157682,-31.522812l3.650675,-2.37427c5.468576,-3.593298 10.448503,-7.905754 14.87003,-12.80099l0,0l2.943737,-3.263506l30.700142,6.656611c0.922122,-1.561211 1.815048,-3.157616 2.676017,-4.789252l0,0l-20.998947,-23.511187l1.303161,-4.200468c1.852842,-6.050067 2.905905,-12.536246 3.2171,-19.30462l0,0l0.191993,-4.406806l27.892943,-14.927687c-0.290829,-1.808653 -0.625206,-3.605353 -1.006374,-5.408226l0,0l-31.034575,-4.347229l-1.669523,-4.065006c-2.495893,-6.07978 -5.797486,-11.77037 -9.738971,-17.019218l0,0l-2.606367,-3.499323l11.804135,-29.402063c-1.367195,-1.213837 -2.769275,-2.391834 -4.209122,-3.534675l0,0l-26.348331,16.748273l-3.880489,-2.073939c-5.747777,-3.063314 -11.964106,-5.390297 -18.520705,-6.898264l0,0l-4.241051,-0.983706l-9.514809,-29.879439c-0.925124,-0.046969 -1.823915,-0.070762 -2.699468,-0.070762l0,0c-0.893102,0 -1.791865,0.023793 -2.722771,0.070762l0,0l-9.447819,29.68512l-4.302259,0.930789c-6.670084,1.448952 -13.031651,3.81141 -18.956975,6.91595l0,0l-3.871789,2.038194l-25.920797,-16.482988c-1.431128,1.142841 -2.836182,2.320839 -4.191592,3.534676l0,0l11.489837,28.630417l-2.699274,3.504934c-4.209149,5.472768 -7.708563,11.470012 -10.332368,17.908885l0,0l-1.660896,4.082504l-30.036892,4.206089c-0.381021,1.802873 -0.718372,3.599573 -1.000537,5.408226l0,0l26.927291,14.415305l0.165734,4.441616c0.282092,7.169723 1.466069,14.050441 3.502194,20.48346l0,0l1.332402,4.229564l-20.335955,22.780824c0.855288,1.637575 1.745342,3.233961 2.676285,4.795078l0,0l29.862171,-6.509569l2.972933,3.263609c4.581414,5.078359 9.814431,9.490599 15.579849,13.155004l0,0l3.720481,2.350206l-1.137417,31.0399c1.687146,0.671591 3.39462,1.302078 5.125369,1.885475l0,0l18.901817,-24.612839l4.316677,0.535829c3.257934,0.418342 6.428558,0.689343 9.584737,0.689343l0,0c3.394592,0 6.818241,-0.300321 10.317673,-0.801116l0,0l4.354628,-0.618375l19.047139,24.807158l0,0l0.00001,0.000009zm8.616017,-63.917876l4.165389,6.479866l-26.406538,17.396531l-9.372239,-14.604209l0,0c-3.409296,0.842342 -6.99299,1.337572 -10.722079,1.337572l0,0c-25.804514,0 -46.713335,-21.178414 -46.713335,-47.281637l0,0c0,-26.126623 20.908821,-47.299192 46.713335,-47.299192l0,0c25.775392,0 46.689856,21.172569 46.689856,47.299192l0,0c0,10.727406 -3.560289,20.66562 -9.529208,28.601031l0,0l5.174819,8.070856m-17.764483,2.491664l0.823203,-0.529984l-7.528088,-11.728967l4.363227,-4.41844c5.704404,-5.79085 9.203698,-13.690693 9.203698,-22.48616l0,0c-0.032031,-17.584602 -14.093397,-31.823545 -31.438825,-31.858702l0,0c-17.386279,0.035166 -31.433089,14.25632 -31.462192,31.858702l0,0c0.029103,17.567094 14.09045,31.805691 31.462192,31.841184l0,0c3.880277,0 7.61537,-0.807167 11.23103,-2.209197l0,0l5.765326,-2.23861l7.580429,11.770174l0,0z" fill-opacity="null" stroke-opacity="null" stroke-width="1.5" stroke="#000" fill="#fff"/>
 </g>
</svg>