<svg width="651" height="434" xmlns="http://www.w3.org/2000/svg">
 <!-- Created with Method Draw - http://github.com/duopixel/Method-Draw/ -->
 <g>
  <title>background</title>
  <rect fill="#ed4b4b" id="canvas_background" height="436" width="653" y="-1" x="-1"/>
  <g display="none" overflow="visible" y="0" x="0" height="100%" width="100%" id="canvasGrid">
   <rect fill="url(#gridpattern)" stroke-width="0" y="0" x="0" height="100%" width="100%"/>
  </g>
 </g>
 <g>
  <title>Layer 1</title>
  <path transform="rotate(-12.037425994873047 273.2023010253906,79.42967224121098) " stroke="#000" id="svg_8" d="m277.346794,145.651173c-5.576366,2.541656 -15.662856,-9.32803 -5.501102,-10.022963c6.877912,-5.894181 -15.247777,-1.687632 -6.231343,-14.135777c9.646197,-2.859533 17.186969,-12.856161 20.545634,-25.644133c3.923694,-13.775422 16.695881,-9.990842 25.064055,-13.971112c16.699235,-4.059152 33.379578,-8.857099 50.363818,-10.041503c5.648469,8.666221 8.312178,27.283695 18.363632,26.557699c10.047815,-6.883322 -0.42436,-24.163579 2.58612,-34.035448c5.901929,-2.707547 4.776043,-7.960968 -0.979805,-8.625917c-8.781654,-8.251907 -1.475331,-24.203178 0.435349,-35.073208c4.648192,-10.324212 -5.305439,-19.427097 -9.098204,-7.244829c-4.832884,12.705449 -7.638448,26.655661 -11.477073,39.975804c-1.19776,8.544768 -10.076042,3.70033 -14.725989,6.249417c-19.607904,2.872129 -39.234471,5.759185 -58.947935,6.870308c-9.875242,-5.800994 -20.355172,-10.661818 -31.2768,-8.600428c-7.638025,3.151447 -11.951741,-0.732488 -11.612432,-11.485217c-4.336412,-15.487883 10.626195,-8.590173 17.372176,-10.869779c26.912923,-1.7821 53.905365,-2.321704 80.808466,-0.131541c5.972866,-2.029307 -7.888829,-1.845051 -9.992269,-2.31156c-28.387234,-2.041763 -56.834663,-1.037379 -85.229258,-2.77374c-8.187746,-4.111885 -16.314341,3.209884 -24.66218,1.969876c-21.055495,1.174483 -42.129881,1.583336 -63.201612,1.672407c5.956905,6.02848 17.068867,0.059496 24.948435,1.552914c15.834013,-0.661892 31.768393,-1.282737 47.509279,1.651897c6.13092,8.064772 2.912326,25.286862 -4.759329,29.298315c-7.81815,5.722781 -15.840574,10.739427 -22.958043,17.540515c-4.498344,11.664837 -17.212605,21.452121 -13.462522,36.140915c4.297682,12.155051 19.881589,4.512285 23.827363,7.930621c-2.919172,7.04324 -12.999946,7.755581 -14.812942,10.330575c9.93982,3.898082 0.462061,12.221867 -5.191334,9.579723c-6.976341,2.24886 7.093468,3.828406 9.416297,3.08896c11.301864,0.123775 22.596837,-0.538247 33.895862,-0.749821c-10.917962,-0.663304 -21.867055,-0.649928 -32.751497,-2.123784c2.538844,-14.212216 15.952638,-7.260499 23.68164,-9.727138c3.7678,-2.630003 16.187326,0.706303 9.891378,5.896048c-3.512971,-2.154902 -12.099274,-0.093939 -4.278955,2.322391c14.144522,0.621773 28.342247,0.900023 42.441119,-1.060471l0,-0.000019zm-34.427058,-5.906219c4.311309,-8.492202 19.21033,-6.860527 21.921737,0.874507c-5.281603,5.785937 -16.180894,3.772393 -21.800759,0.267976l-0.120978,-1.142492l0,0l0,0.000009zm-31.164129,-4.945799c6.354636,-6.104714 17.984572,-6.778441 23.69365,-1.815726c-7.168678,4.667586 -15.961698,2.768009 -23.69365,1.815726zm31.398431,-2.796433c-6.752183,-7.845284 11.913002,-6.385147 16.039287,-5.985324c10.204922,6.320097 -4.139949,8.065552 -8.42552,7.029632c-2.55327,-0.022916 -5.117108,-0.283768 -7.613776,-1.044308l0.000009,0z" stroke-width="1.5" fill="#fff"/>
  <path stroke="#000" id="svg_7" d="m466.499149,155.846966c-5.108601,2.453218 -14.349001,-9.003457 -5.03965,-9.674209c6.300969,-5.68909 -13.96874,-1.62891 -5.708636,-13.643916c8.83704,-2.760034 15.745267,-12.408825 18.822196,-24.751833c3.594561,-13.2961 15.295373,-9.643206 22.961596,-13.484981c15.298446,-3.917912 30.579584,-8.548913 46.139127,-9.692105c5.174656,8.364676 7.614924,26.334346 16.823227,25.633612c9.204969,-6.643814 -0.388763,-23.322796 2.369187,-32.851169c5.406855,-2.613337 4.375412,-7.683963 -0.897615,-8.325774c-8.045019,-7.964778 -1.351575,-23.361017 0.398831,-33.852819c4.258286,-9.964976 -4.8604,-18.751122 -8.335015,-6.992742c-4.427485,12.263357 -6.997708,25.728164 -10.514337,38.584827c-1.097288,8.247449 -9.230829,3.571575 -13.490723,6.031966c-17.963126,2.772192 -35.943348,5.558791 -54.003178,6.631253c-9.046873,-5.599146 -18.64771,-10.290835 -28.653194,-8.301172c-6.997321,3.041791 -10.949188,-0.707001 -10.638341,-11.085584c-3.972659,-14.948975 9.734833,-8.291274 15.914938,-10.49156c24.655374,-1.720091 49.383597,-2.240919 74.029973,-0.126964c5.471841,-1.958696 -7.227087,-1.780852 -9.154083,-2.231128c-26.006015,-1.970719 -52.067175,-1.001283 -78.079933,-2.677227c-7.500929,-3.96881 -14.945837,3.098194 -22.593431,1.901333c-19.289287,1.133617 -38.595881,1.528243 -57.900043,1.614215c5.457219,5.818716 15.637072,0.057425 22.855674,1.49888c14.505801,-0.638861 29.103551,-1.238103 43.524037,1.594419c5.616637,7.784155 2.66803,24.406994 -4.3601,28.278867c-7.162337,5.523655 -14.511812,10.365744 -21.032243,16.930184c-4.121007,11.258954 -15.768753,20.705685 -12.333239,34.883375c3.937177,11.732111 18.213852,4.355278 21.828642,7.654672c-2.674302,6.798167 -11.909466,7.485722 -13.570381,9.971118c9.106034,3.762446 0.423302,11.796601 -4.755867,9.246392c-6.391141,2.17061 6.498444,3.695195 8.626425,2.981478c10.353825,0.119468 20.701336,-0.519519 31.05256,-0.723731c-10.002126,-0.640224 -20.032771,-0.627313 -30.004188,-2.049886c2.325877,-13.717695 14.614476,-7.007867 21.695143,-9.388678c3.451743,-2.538491 14.829477,0.681726 9.061655,5.690892c-3.21829,-2.079922 -11.084345,-0.09067 -3.920022,2.241582c12.958031,0.600138 25.964801,0.868707 38.881012,-1.023571l0,-0.000018zm-31.539197,-5.70071c3.949661,-8.196712 17.598901,-6.621812 20.082866,0.844078c-4.838564,5.584612 -14.823585,3.641131 -19.972036,0.258652l-0.11083,-1.102739l0,0l0,0.000009zm-28.549974,-4.773708c5.821587,-5.892298 16.475964,-6.542582 21.706145,-1.752547c-6.567344,4.505176 -14.622776,2.671695 -21.706145,1.752547zm28.764622,-2.69913c-6.185787,-7.572304 10.913698,-6.162973 14.693857,-5.777062c9.348898,6.100186 -3.792676,7.784908 -7.718759,6.785033c-2.339093,-0.022118 -4.687867,-0.273894 -6.975106,-1.007971l0.000008,0z" stroke-width="1.5" fill="#fff"/>
  <path transform="rotate(-7.948919296264648 570.2032470703124,165.92967224121102) " stroke="#000" id="svg_2" d="m574.712733,237.22043c-6.06875,2.73622 -17.04586,-10.04209 -5.98684,-10.79022c7.48522,-6.34538 -16.59413,-1.81682 -6.78156,-15.21787c10.49794,-3.07843 18.70455,-13.8403 22.35978,-27.60719c4.27015,-14.82993 18.1701,-10.75564 27.27717,-15.0406c18.17375,-4.36988 36.32694,-9.53511 54.81086,-10.81018c6.14722,9.32962 9.04613,29.37226 19.98511,28.59069c10.93502,-7.41024 -0.46183,-26.0133 2.81447,-36.64086c6.42306,-2.91481 5.19776,-8.57038 -1.06632,-9.28623c-9.55706,-8.88359 -1.6056,-26.05593 0.47379,-37.75806c5.05862,-11.11453 -5.7739,-20.91424 -9.90156,-7.79942c-5.25962,13.67805 -8.31291,28.69615 -12.49048,43.03595c-1.30352,9.19887 -10.96574,3.98359 -16.02627,6.72781c-21.33925,3.09199 -42.69881,6.20005 -64.15294,7.39623c-10.74721,-6.24506 -22.1525,-11.47798 -34.03849,-9.25879c-8.31245,3.39269 -13.00706,-0.78856 -12.63779,-12.36441c-4.71931,-16.67348 11.56447,-9.24775 18.90611,-11.70186c29.28929,-1.91852 58.66512,-2.49943 87.94372,-0.14161c6.50026,-2.18465 -8.5854,-1.98629 -10.87457,-2.48851c-30.89378,-2.19806 -61.85307,-1.11679 -92.75486,-2.98607c-8.91071,-4.42665 -17.75487,3.4556 -26.83981,2.12067c-22.91466,1.26439 -45.84988,1.70454 -68.78221,1.80043c6.48289,6.48996 18.57602,0.06405 27.15134,1.67179c17.23213,-0.71256 34.57349,-1.38093 51.70427,1.77835c6.67227,8.68213 3.16948,27.22257 -5.17957,31.5411c-8.50848,6.16086 -17.23927,11.56153 -24.9852,18.88324c-4.89554,12.55778 -18.73245,23.09428 -14.65124,38.9075c4.67716,13.08552 21.6371,4.8577 25.93128,8.53771c-3.17693,7.5824 -14.14782,8.34927 -16.1209,11.12138c10.81749,4.19648 0.50286,13.15745 -5.64972,10.31305c-7.59234,2.42101 7.71981,4.12147 10.24774,3.32542c12.2998,0.13325 24.5921,-0.57945 36.88881,-0.80722c-11.882,-0.71408 -23.79788,-0.69968 -35.6434,-2.28636c2.76302,-15.30016 17.36123,-7.81629 25.77269,-10.47175c4.10049,-2.83133 17.61664,0.76037 10.76477,6.34739c-3.82316,-2.31986 -13.16762,-0.10113 -4.65678,2.50017c15.39346,0.66937 30.84482,0.96892 46.1886,-1.14165l0,-0.00002zm-37.46691,-6.35834c4.69199,-9.14228 20.90657,-7.3857 23.85739,0.94145c-5.74796,6.22885 -17.60964,4.06117 -23.72573,0.28849l-0.13166,-1.22995l0,0l0,0.00001zm-33.91587,-5.3244c6.91574,-6.57203 19.57258,-7.29733 25.78576,-1.95472c-7.80166,5.02489 -17.37109,2.9799 -25.78576,1.95472zm34.17086,-3.0105c-7.34839,-8.44584 12.9649,-6.87393 17.45553,-6.4435c11.106,6.8039 -4.5055,8.68297 -9.16948,7.56775c-2.77872,-0.02467 -5.56894,-0.30549 -8.28606,-1.12425l0.00001,0z" stroke-width="1.5" fill="#fff"/>
  <path transform="rotate(-6.956761360168457 363.7018127441405,190.4293975830077) " stroke="#000" id="svg_5" d="m368.450599,270.476419c-6.3888,3.072285 -17.944814,-11.275467 -6.30257,-12.115483c7.879971,-7.124724 -17.469261,-2.039963 -7.139202,-17.08694c11.051574,-3.456525 19.690978,-15.540176 23.538976,-30.997925c4.495346,-16.651353 19.128343,-12.076656 28.715696,-16.887898c19.132186,-4.906592 38.242727,-10.706219 57.70144,-12.137894c6.471408,10.475491 9.523199,32.979783 21.039072,32.10222c11.511704,-8.320371 -0.486186,-29.208273 2.962898,-41.141117c6.761795,-3.272809 5.471876,-9.623 -1.122555,-10.426772c-10.061074,-9.974679 -1.690275,-29.256138 0.498776,-42.395533c5.325398,-12.479625 -6.0784,-23.482942 -10.423742,-8.75735c-5.536998,15.357998 -8.751311,32.220632 -13.149195,48.321657c-1.372264,10.328682 -11.544044,4.472857 -16.871453,7.554125c-22.464626,3.47175 -44.950632,6.961545 -67.536196,8.30464c-11.313989,-7.012083 -23.320764,-12.887714 -35.83359,-10.395961c-8.750827,3.809383 -13.693018,-0.885412 -13.304274,-13.883016c-4.968194,-18.721329 12.17435,-10.383565 19.903168,-13.139091c30.83393,-2.154154 61.758963,-2.806412 92.581639,-0.159003c6.843067,-2.45297 -9.038171,-2.230248 -11.448066,-2.794151c-32.523036,-2.468027 -65.115037,-1.253955 -97.646506,-3.352821c-9.380637,-4.970334 -18.691215,3.880019 -28.255271,2.381132c-24.123119,1.419683 -48.267881,1.913893 -72.409602,2.02156c6.82478,7.287062 19.55567,0.071917 28.58323,1.87712c18.140907,-0.800077 36.396804,-1.550537 54.431016,1.996768c7.024148,9.748476 3.33663,30.566066 -5.452727,35.415001c-8.957195,6.917541 -18.148424,12.981526 -26.302853,21.202493c-5.153718,14.100136 -19.72035,25.930736 -15.423908,43.686148c4.923821,14.692693 22.778183,5.454326 27.298827,9.586318c-3.344473,8.513676 -14.893939,9.374733 -16.971074,12.487316c11.387976,4.711895 0.52938,14.773458 -5.947671,11.579706c-7.99274,2.71836 8.126932,4.627672 10.788179,3.733851c12.948459,0.149616 25.889022,-0.650618 38.834228,-0.906363c-12.508625,-0.801784 -25.052917,-0.785615 -37.523139,-2.567172c2.908734,-17.179337 18.276815,-8.776292 27.131874,-11.757898c4.316739,-3.179076 18.545695,0.853759 11.332475,7.126981c-4.024783,-2.604787 -13.862045,-0.113551 -4.902366,2.807243c16.20527,0.751583 32.471494,1.087923 48.624465,-1.281868l0,-0.000022zm-39.442816,-7.139276c4.939433,-10.265142 22.009127,-8.292817 25.115566,1.05708c-6.051092,6.993882 -18.538326,4.559966 -24.976962,0.323923l-0.138603,-1.381013l0,0l0,0.000011zm-35.704503,-5.978347c7.280458,-7.379212 20.604786,-8.193593 27.145633,-2.1948c-8.213099,5.642051 -18.287195,3.345894 -27.145633,2.1948zm35.972941,-3.380252c-7.735925,-9.483164 13.648635,-7.718191 18.376088,-7.234895c11.691701,7.63956 -4.743108,9.749419 -9.653054,8.497227c-2.925262,-0.0277 -5.862631,-0.343011 -8.723045,-1.262331l0.000011,0z" stroke-width="1.5" fill="#fff"/>
  <path transform="rotate(-4.228837490081787 550.7008056640628,294.9292297363285) " stroke="#000" id="svg_4" d="m557.097324,405.8528c-8.604527,4.257354 -24.168333,-15.624744 -8.488392,-16.788778c10.612858,-9.872938 -23.527851,-2.826837 -9.615179,-23.677872c14.884418,-4.789808 26.520093,-21.534476 31.702631,-42.954731c6.054397,-23.074266 25.762327,-16.734974 38.674712,-23.402053c25.767502,-6.799208 51.505854,-14.835921 77.713128,-16.819835c8.715785,14.516194 12.825981,45.701048 28.335724,44.484983c15.504128,-11.529781 -0.654802,-40.474757 3.990473,-57.010448c9.106883,-4.535227 7.369601,-13.334873 -1.511873,-14.448682c-13.550399,-13.822204 -2.276487,-40.541086 0.671759,-58.748728c7.172323,-17.293381 -8.186477,-32.540999 -14.038846,-12.135316c-7.457309,21.282027 -11.786391,44.649071 -17.709525,66.960732c-1.848185,14.312756 -15.547684,6.198169 -22.722715,10.467971c-30.25568,4.810906 -60.540157,9.646816 -90.958719,11.507983c-15.237843,-9.716848 -31.40874,-17.858882 -48.261194,-14.405987c-11.785739,5.278773 -18.441953,-1.226941 -17.918387,-19.238101c-6.691235,-25.942693 16.396589,-14.38881 26.805873,-18.207222c41.527579,-2.985074 83.177859,-3.888927 124.690282,-0.220335c9.21634,-3.399153 -12.172739,-3.090519 -15.41842,-3.871936c-43.802492,-3.420018 -87.697868,-1.737642 -131.511717,-4.646102c-12.633977,-6.887538 -25.173597,5.376656 -38.054604,3.299605c-32.489363,1.967297 -65.007876,2.652137 -97.522292,2.801335c9.191712,10.097894 26.337857,0.099657 38.496305,2.601181c24.432434,-1.10869 49.019739,-2.148624 73.308475,2.76698c9.460223,13.508747 4.493821,42.356291 -7.343811,49.075601c-12.063679,9.585839 -24.442557,17.988879 -35.425061,29.380914c-6.941101,19.53897 -26.55965,35.932979 -20.77314,60.537171c6.631473,20.360094 30.677985,7.558219 36.766453,13.284041c-4.504384,11.797649 -20.05937,12.990842 -22.856886,17.304039c15.337489,6.52941 0.712976,20.472012 -8.010409,16.046337c-10.764737,3.766911 10.945469,6.4127 14.529674,5.174106c17.43917,0.207327 34.867707,-0.901581 52.302496,-1.255974c-16.846796,-1.111055 -33.741629,-1.08865 -50.536702,-3.557406c3.917525,-23.805909 24.615477,-12.161565 36.541597,-16.293263c5.813846,-4.405339 24.977608,1.183079 15.262741,9.876066c-5.420636,-3.609529 -18.669602,-0.157351 -6.602577,3.890078c21.825491,1.04149 43.733075,1.507567 65.488127,-1.776322l0,-0.000031zm-53.122151,-9.893103c6.6525,-14.224706 29.642209,-11.491599 33.826005,1.464826c-8.149698,9.691626 -24.967684,6.318878 -33.639332,0.448869l-0.186673,-1.913711l0,0l0,0.000016zm-48.087338,-8.28437c9.805425,-10.225589 27.750822,-11.354102 36.560128,-3.041399c-11.06152,7.818354 -24.629457,4.636502 -36.560128,3.041399zm48.448873,-4.684114c-10.418854,-13.141098 18.382177,-10.695323 24.74918,-10.025606c15.746551,10.586361 -6.388086,13.510054 -13.000872,11.774855c-3.939785,-0.038385 -7.895876,-0.47532 -11.748322,-1.749249l0.000014,0z" stroke-width="1.5" fill="#fff"/>
  <path stroke="#000" id="svg_1" d="m105.676136,202.259586c-6.019506,2.718533 -16.907556,-9.97718 -5.938264,-10.720472c7.424495,-6.30436 -16.459497,-1.805073 -6.726538,-15.1195c10.412769,-3.058527 18.552789,-13.750832 22.178363,-27.428722c4.235511,-14.734069 18.022679,-10.686118 27.055866,-14.943377c18.026292,-4.341637 36.032205,-9.473469 54.366152,-10.740301c6.097347,9.269311 8.972734,29.182392 19.822958,28.405871c10.846301,-7.362336 -0.458081,-25.845144 2.791642,-36.404005c6.370945,-2.895968 5.15559,-8.51498 -1.05767,-9.226201c-9.479521,-8.826157 -1.592571,-25.887493 0.469943,-37.51398c5.017581,-11.042677 -5.727057,-20.779041 -9.821224,-7.749003c-5.216942,13.58963 -8.245461,28.510652 -12.389135,42.757751c-1.292944,9.139408 -10.876777,3.957848 -15.896246,6.684321c-21.166112,3.072004 -42.352376,6.159976 -63.632438,7.348418c-10.660019,-6.204686 -21.972772,-11.40378 -33.762326,-9.198939c-8.245003,3.370763 -12.901522,-0.783457 -12.535245,-12.284475c-4.681028,-16.565698 11.470635,-9.187977 18.752715,-11.626223c29.051648,-1.906115 58.189141,-2.483275 87.230194,-0.140689c6.44752,-2.170532 -8.515748,-1.973454 -10.786338,-2.472423c-30.643132,-2.183854 -61.351229,-1.109578 -92.002307,-2.966771c-8.838412,-4.398036 -17.610811,3.433261 -26.622048,2.106964c-22.728738,1.256211 -45.477873,1.69352 -68.224147,1.788784c6.430287,6.448016 18.42531,0.063645 26.931052,1.660987c17.092317,-0.707957 34.292976,-1.371999 51.284766,1.766859c6.618138,8.626003 3.143768,27.046588 -5.137548,31.337208c-8.439443,6.121035 -17.099396,11.486791 -24.782481,18.761175c-4.855824,12.4766 -18.580462,22.944985 -14.532368,38.655982c4.639213,13.000934 21.461545,4.826302 25.720887,8.482523c-3.15115,7.533387 -14.033028,8.295294 -15.990102,11.049493c10.729718,4.169351 0.498784,13.072387 -5.603885,10.246383c-7.530736,2.405359 7.657178,4.094821 10.164603,3.30392c12.2,0.132385 24.39257,-0.575704 36.589513,-0.802007c-11.785598,-0.709457 -23.604795,-0.695153 -35.35421,-2.271574c2.740598,-15.201254 17.220369,-7.765766 25.563585,-10.404056c4.067223,-2.813035 17.473709,0.755456 10.677431,6.306356c-3.792145,-2.304868 -13.060786,-0.10048 -4.618997,2.484003c15.268568,0.665045 30.594556,0.962658 45.813846,-1.13427l0,-0.000011zm-37.162918,-6.317241c4.65392,-9.083185 20.736938,-7.337952 23.663818,0.935362c-5.701322,6.188584 -17.466761,4.034915 -23.533231,0.286628l-0.130586,-1.222001l0,0l0,0.000011zm-33.6407,-5.289979c6.859625,-6.529549 19.413779,-7.250155 25.576551,-1.942089c-7.738363,4.992411 -17.230154,2.960639 -25.576551,1.942089zm33.893615,-2.991044c-7.288767,-8.391241 12.859716,-6.829488 17.313906,-6.40184c11.015897,6.75991 -4.468946,8.626841 -9.095079,7.518829c-2.75618,-0.024516 -5.523763,-0.303523 -8.218835,-1.116989l0.000008,0z" stroke-width="1.5" fill="#fff"/>
  <path stroke="#000" id="svg_6" d="m141.743347,328.280619c-6.782707,3.160723 -19.051217,-11.600039 -6.691161,-12.464236c8.365817,-7.329815 -18.546343,-2.098685 -7.579375,-17.5788c11.732968,-3.556024 20.905043,-15.987511 24.990292,-31.890223c4.772511,-17.130674 20.307718,-12.424291 30.486187,-17.374028c20.311797,-5.047832 40.600615,-11.014406 61.259072,-12.487292c6.870408,10.777035 10.11036,33.92913 22.336254,33.026305c12.221468,-8.559879 -0.516162,-30.049054 3.145578,-42.325394c7.1787,-3.367019 5.809249,-9.900005 -1.191767,-10.726914c-10.681398,-10.261807 -1.79449,-30.098298 0.529529,-43.615919c5.65374,-12.83886 -6.453169,-24.158916 -11.066427,-9.009437c-5.878387,15.800089 -9.290881,33.148127 -13.95992,49.712631c-1.456872,10.626001 -12.255802,4.601612 -17.911677,7.771576c-23.849702,3.571687 -47.722102,7.161938 -71.700199,8.543696c-12.011563,-7.213931 -24.758626,-13.258696 -38.042941,-10.695217c-9.290366,3.919039 -14.537273,-0.910899 -14.12456,-14.282649c-5.274512,-19.260236 12.92497,-10.682464 21.130315,-13.517309c32.735022,-2.216163 65.566766,-2.887196 98.28984,-0.16358c7.264982,-2.523581 -9.595428,-2.294447 -12.153906,-2.874582c-34.528272,-2.539071 -69.129761,-1.290051 -103.666986,-3.449335c-9.959009,-5.113409 -19.843638,3.991709 -29.997374,2.449675c-25.61045,1.46055 -51.243879,1.968986 -76.874078,2.079752c7.245568,7.496825 20.761392,0.073987 30.345554,1.931155c19.2594,-0.823108 38.640881,-1.59517 57.787008,2.054247c7.457228,10.029093 3.542353,31.445933 -5.788919,36.434448c-9.509458,7.116668 -19.26738,13.355208 -27.924579,21.812823c-5.471475,14.506018 -20.936225,26.677172 -16.374882,44.943685c5.227403,15.115633 24.182592,5.611333 28.98196,9.862267c-3.550679,8.758748 -15.812237,9.644592 -18.01744,12.846773c12.090111,4.84753 0.562019,15.198722 -6.31438,11.913037c-8.485539,2.79661 8.628005,4.760883 11.453333,3.841332c13.746807,0.153923 27.485232,-0.669347 41.228586,-0.932454c-13.279855,-0.824864 -26.597577,-0.80823 -39.83666,-2.64107c3.088075,-17.673857 19.403688,-9.028924 28.804713,-12.096358c4.582891,-3.270588 19.689146,0.878335 12.031189,7.332136c-4.272935,-2.679768 -14.716722,-0.11682 -5.204626,2.888051c17.20442,0.773217 34.473552,1.11924 51.622448,-1.318768l0,-0.000023zm-41.874697,-7.344785c5.243978,-10.560631 23.366119,-8.531532 26.664088,1.087508c-6.424178,7.195206 -19.681322,4.691228 -26.516938,0.333247l-0.147149,-1.420767l0,0l0,0.000012zm-37.905895,-6.150438c7.729341,-7.591628 21.875192,-8.429452 28.81932,-2.257979c-8.719485,5.804461 -19.414708,3.442207 -28.81932,2.257979zm38.190884,-3.477555c-8.21289,-9.756144 14.490153,-7.940365 19.509082,-7.443157c12.412563,7.85947 -5.035549,10.030063 -10.248222,8.741825c-3.105622,-0.028497 -6.224097,-0.352884 -9.260872,-1.298668l0.000011,0z" stroke-width="1.5" fill="#fff"/>
  <path stroke="#000" id="svg_3" d="m289.758173,427.999639c-8.694449,5.09286 -27.707504,-10.925054 -11.077986,-14.174126c10.173049,-10.509186 -25.497646,0.691913 -13.103842,-20.318581c15.346756,-6.454729 25.794817,-23.391942 28.784742,-43.706925c3.725214,-21.949356 25.556338,-18.896297 38.570506,-26.793438c26.74576,-9.808814 53.312891,-20.745509 81.102708,-26.211058c11.050374,12.063725 19.161643,40.015797 35.602951,36.742843c15.206382,-12.706084 -5.522981,-36.930868 -2.525593,-52.703116c9.198561,-5.417011 6.292189,-13.223992 -3.338425,-13.005532c-16.137846,-10.755438 -7.265123,-36.765626 -6.281767,-53.830791c5.609546,-16.81734 -12.632057,-28.624674 -16.459193,-9.144404c-5.439048,20.505438 -7.284315,42.482248 -10.960022,63.715765c-0.271036,13.349283 -15.888245,7.835349 -23.052499,12.740455c-31.782357,8.615361 -63.59253,17.257604 -95.900547,23.197541c-17.453238,-6.765212 -35.716643,-11.959967 -53.327326,-6.453945c-11.974749,6.470314 -19.868124,1.446826 -21.454323,-15.100841c-10.246822,-22.79753 15.82012,-15.445552 26.496888,-20.388329c44.054145,-8.515541 88.487492,-15.144491 133.31824,-17.57184c9.450984,-4.393096 -13.385844,-1.13113 -16.949903,-1.393741c-47.250143,2.973744 -93.991644,10.627564 -141.192977,14.070808c-14.331525,-4.539992 -26.280136,8.424877 -40.302648,8.319429c-34.509897,6.325492 -69.203778,11.481988 -103.957101,16.147963c11.032875,7.956025 28.177729,-3.577907 41.478108,-2.983538c25.996079,-4.417737 52.165969,-8.794158 78.726195,-7.681481c11.726439,11.038513 9.852642,38.117094 -2.005955,45.912291c-11.758774,10.448688 -23.995561,19.859384 -34.382905,31.809576c-5.094705,18.83916 -24.12148,36.567702 -15.001663,58.266947c9.517723,17.699476 33.707803,2.639795 40.9011,7.02901c-3.411276,11.418754 -19.903693,14.67709 -22.381436,19.012067c17.180004,3.835795 3.201784,18.626339 -6.65439,15.793427c-11.063028,4.945187 12.469246,4.340883 16.154632,2.708639c18.674252,-2.239767 37.180297,-5.682008 55.782932,-8.434968c-18.148446,1.330609 -36.213206,3.704681 -54.468115,3.786202c1.352853,-22.320904 24.874831,-14.553254 37.136382,-19.993899c5.692446,-4.839457 26.852165,-2.397413 17.498835,6.90738c-6.226949,-2.546485 -19.984127,2.456889 -6.597315,4.478027c23.464401,-2.08781 46.948031,-4.713383 69.821719,-10.747787l-0.000004,-0.000028zm-57.987933,-1.648861c5.419289,-13.938022 30.330275,-14.640701 36.348261,-3.372349c-7.560536,10.000204 -25.947662,9.258038 -35.920607,5.096792l-0.427656,-1.724458l0,0l0.000002,0.000014zm-52.411988,-0.878747c9.267557,-10.719272 28.323999,-14.251448 38.735213,-7.875057c-10.897663,8.692369 -25.786423,7.672059 -38.735213,7.875057zm51.253369,-11.033834c-12.707797,-10.56868 18.383613,-12.343743 25.272321,-12.618127c18.100859,7.489686 -5.221678,13.247498 -12.500184,12.58153c-4.217802,0.513732 -8.500531,0.665182 -12.772152,0.036599l0.000015,-0.000002z" stroke-width="1.5" fill="#fff"/>
 </g>
</svg>